<svg width="877" height="616" viewBox="0 0 877 616" fill="none" xmlns="http://www.w3.org/2000/svg">
<rect width="877" height="616" rx="30" fill="#002B60" fill-opacity="0.99"/>
<rect x="27" y="86" width="830" height="330" rx="20" fill="white"/>
<path d="M683.264 295V284.088L683.968 284.632H680.672V283.32H684.8V295H683.264ZM690.687 290.456L686.975 283.32H688.607L691.743 289.432L691.135 289.256H693.023L692.383 289.432L695.327 283.32H696.863L693.375 290.456H690.687ZM691.263 295V290.136H692.799V295H691.263Z" fill="#002B60"/>
<path d="M686.056 331.288C685.16 331.288 684.403 331.107 683.784 330.744C683.165 330.371 682.696 329.885 682.376 329.288C682.056 328.691 681.896 328.056 681.896 327.384H683.4C683.4 327.875 683.507 328.312 683.72 328.696C683.944 329.08 684.253 329.384 684.648 329.608C685.043 329.832 685.512 329.944 686.056 329.944C686.589 329.944 687.053 329.837 687.448 329.624C687.853 329.4 688.168 329.096 688.392 328.712C688.616 328.317 688.728 327.875 688.728 327.384C688.728 326.893 688.616 326.451 688.392 326.056C688.179 325.661 687.869 325.347 687.464 325.112C687.069 324.877 686.6 324.76 686.056 324.76C685.661 324.76 685.261 324.829 684.856 324.968C684.451 325.096 684.125 325.283 683.88 325.528H682.472L683.064 319.32H689.192V320.632H683.96L684.344 320.104L683.896 324.632L683.48 324.488C683.789 324.179 684.163 323.933 684.6 323.752C685.048 323.571 685.555 323.48 686.12 323.48C687.016 323.48 687.768 323.667 688.376 324.04C688.984 324.403 689.443 324.877 689.752 325.464C690.072 326.04 690.232 326.643 690.232 327.272V327.496C690.232 328.125 690.072 328.733 689.752 329.32C689.432 329.896 688.957 330.371 688.328 330.744C687.709 331.107 686.952 331.288 686.056 331.288ZM694.937 326.456L691.225 319.32H692.857L695.993 325.432L695.385 325.256H697.273L696.633 325.432L699.577 319.32H701.113L697.625 326.456H694.937ZM695.513 331V326.136H697.049V331H695.513Z" fill="#002B60"/>
<path d="M680.696 367V355.32H682.776L686.232 363.112H686.488L689.928 355.32H692.024V367H690.456V357.032L690.568 357.064L687.256 364.584H685.336L682.008 357.064L682.136 357.032V367H680.696ZM700.359 367V364.44H700.103V361.48C700.103 360.893 699.948 360.451 699.639 360.152C699.34 359.853 698.897 359.704 698.311 359.704C697.98 359.704 697.639 359.709 697.287 359.72C696.935 359.731 696.599 359.741 696.279 359.752C695.959 359.763 695.681 359.779 695.447 359.8V358.456C695.681 358.435 695.927 358.419 696.183 358.408C696.449 358.387 696.721 358.376 696.999 358.376C697.276 358.365 697.543 358.36 697.799 358.36C698.673 358.36 699.388 358.467 699.943 358.68C700.497 358.883 700.908 359.219 701.175 359.688C701.441 360.157 701.575 360.792 701.575 361.592V367H700.359ZM697.559 367.224C696.919 367.224 696.364 367.117 695.895 366.904C695.436 366.68 695.079 366.36 694.823 365.944C694.577 365.528 694.455 365.027 694.455 364.44C694.455 363.832 694.588 363.325 694.855 362.92C695.132 362.515 695.532 362.211 696.055 362.008C696.577 361.795 697.207 361.688 697.943 361.688H700.263V362.84H697.879C697.26 362.84 696.785 362.989 696.455 363.288C696.124 363.587 695.959 363.971 695.959 364.44C695.959 364.909 696.124 365.288 696.455 365.576C696.785 365.864 697.26 366.008 697.879 366.008C698.241 366.008 698.588 365.944 698.919 365.816C699.249 365.677 699.521 365.453 699.735 365.144C699.959 364.824 700.081 364.387 700.103 363.832L700.519 364.44C700.465 365.048 700.316 365.56 700.071 365.976C699.836 366.381 699.505 366.691 699.079 366.904C698.663 367.117 698.156 367.224 697.559 367.224ZM703.37 367L706.426 362.504L706.378 362.824L703.514 358.456H705.21L707.274 361.672H707.498L709.45 358.456H711.034L708.33 362.712L708.378 362.424L711.578 367H709.882L707.482 363.528H707.258L704.954 367H703.37Z" fill="#002B60"/>
<path d="M62.18 144V133.635L62.675 134.025H59.69V133.05H63.305V144H62.18ZM70.4152 144.285C69.6852 144.285 69.0652 144.16 68.5552 143.91C68.0452 143.65 67.6302 143.29 67.3102 142.83C67.0002 142.37 66.7702 141.825 66.6202 141.195C66.4702 140.555 66.3952 139.86 66.3952 139.11V138.48C66.3952 136.7 66.8102 135.34 67.6402 134.4C68.4702 133.45 69.7102 132.975 71.3602 132.975C71.7002 132.975 72.0052 132.985 72.2752 133.005C72.5452 133.025 72.8352 133.055 73.1452 133.095V134.07C72.8352 134.02 72.5352 133.985 72.2452 133.965C71.9552 133.945 71.6402 133.935 71.3002 133.935C70.3602 133.935 69.6052 134.12 69.0352 134.49C68.4652 134.85 68.0502 135.375 67.7902 136.065C67.5402 136.755 67.4152 137.59 67.4152 138.57V139.635L67.1152 140.52C67.1252 139.76 67.2702 139.115 67.5502 138.585C67.8402 138.055 68.2452 137.65 68.7652 137.37C69.2852 137.09 69.8952 136.95 70.5952 136.95C71.3752 136.95 72.0352 137.11 72.5752 137.43C73.1152 137.75 73.5202 138.185 73.7902 138.735C74.0702 139.285 74.2102 139.9 74.2102 140.58C74.2102 141.27 74.0652 141.895 73.7752 142.455C73.4952 143.015 73.0752 143.46 72.5152 143.79C71.9552 144.12 71.2552 144.285 70.4152 144.285ZM70.4152 143.295C71.0152 143.295 71.5152 143.175 71.9152 142.935C72.3252 142.695 72.6302 142.37 72.8302 141.96C73.0302 141.55 73.1302 141.09 73.1302 140.58C73.1302 140.07 73.0302 139.615 72.8302 139.215C72.6402 138.805 72.3452 138.485 71.9452 138.255C71.5552 138.015 71.0702 137.895 70.4902 137.895C69.9202 137.895 69.4202 138.005 68.9902 138.225C68.5702 138.445 68.2402 138.76 68.0002 139.17C67.7702 139.57 67.6552 140.045 67.6552 140.595C67.6552 141.065 67.7552 141.505 67.9552 141.915C68.1552 142.325 68.4602 142.66 68.8702 142.92C69.2802 143.17 69.7952 143.295 70.4152 143.295ZM80.2297 144.285C79.4997 144.285 78.8797 144.16 78.3697 143.91C77.8597 143.65 77.4447 143.29 77.1247 142.83C76.8147 142.37 76.5847 141.825 76.4347 141.195C76.2847 140.555 76.2097 139.86 76.2097 139.11V138.48C76.2097 136.7 76.6247 135.34 77.4547 134.4C78.2847 133.45 79.5247 132.975 81.1747 132.975C81.5147 132.975 81.8197 132.985 82.0897 133.005C82.3597 133.025 82.6497 133.055 82.9597 133.095V134.07C82.6497 134.02 82.3497 133.985 82.0597 133.965C81.7697 133.945 81.4547 133.935 81.1147 133.935C80.1747 133.935 79.4197 134.12 78.8497 134.49C78.2797 134.85 77.8647 135.375 77.6047 136.065C77.3547 136.755 77.2297 137.59 77.2297 138.57V139.635L76.9297 140.52C76.9397 139.76 77.0847 139.115 77.3647 138.585C77.6547 138.055 78.0597 137.65 78.5797 137.37C79.0997 137.09 79.7097 136.95 80.4097 136.95C81.1897 136.95 81.8497 137.11 82.3897 137.43C82.9297 137.75 83.3347 138.185 83.6047 138.735C83.8847 139.285 84.0247 139.9 84.0247 140.58C84.0247 141.27 83.8797 141.895 83.5897 142.455C83.3097 143.015 82.8897 143.46 82.3297 143.79C81.7697 144.12 81.0697 144.285 80.2297 144.285ZM80.2297 143.295C80.8297 143.295 81.3297 143.175 81.7297 142.935C82.1397 142.695 82.4447 142.37 82.6447 141.96C82.8447 141.55 82.9447 141.09 82.9447 140.58C82.9447 140.07 82.8447 139.615 82.6447 139.215C82.4547 138.805 82.1597 138.485 81.7597 138.255C81.3697 138.015 80.8847 137.895 80.3047 137.895C79.7347 137.895 79.2347 138.005 78.8047 138.225C78.3847 138.445 78.0547 138.76 77.8147 139.17C77.5847 139.57 77.4697 140.045 77.4697 140.595C77.4697 141.065 77.5697 141.505 77.7697 141.915C77.9697 142.325 78.2747 142.66 78.6847 142.92C79.0947 143.17 79.6097 143.295 80.2297 143.295ZM90.3891 144.255C89.6191 144.255 88.9591 144.12 88.4091 143.85C87.8591 143.58 87.4091 143.205 87.0591 142.725C86.7091 142.235 86.4491 141.665 86.2791 141.015C86.1191 140.355 86.0391 139.645 86.0391 138.885V138.18C86.0391 137.11 86.1941 136.17 86.5041 135.36C86.8241 134.55 87.3041 133.915 87.9441 133.455C88.5941 132.995 89.4091 132.765 90.3891 132.765C91.3691 132.765 92.1791 132.995 92.8191 133.455C93.4591 133.915 93.9341 134.55 94.2441 135.36C94.5641 136.17 94.7241 137.11 94.7241 138.18V138.885C94.7241 139.645 94.6391 140.355 94.4691 141.015C94.3091 141.665 94.0541 142.235 93.7041 142.725C93.3541 143.205 92.9041 143.58 92.3541 143.85C91.8041 144.12 91.1491 144.255 90.3891 144.255ZM90.3891 143.235C91.4691 143.235 92.2691 142.855 92.7891 142.095C93.3191 141.335 93.5841 140.15 93.5841 138.54C93.5841 136.86 93.3141 135.65 92.7741 134.91C92.2441 134.16 91.4491 133.785 90.3891 133.785C89.3191 133.785 88.5141 134.16 87.9741 134.91C87.4441 135.65 87.1791 136.85 87.1791 138.51C87.1791 140.13 87.4391 141.325 87.9591 142.095C88.4891 142.855 89.2991 143.235 90.3891 143.235Z" fill="#002B60"/>
<path d="M62.18 187V176.635L62.675 177.025H59.69V176.05H63.305V187H62.18ZM70.4152 187.285C69.6852 187.285 69.0652 187.16 68.5552 186.91C68.0452 186.65 67.6302 186.29 67.3102 185.83C67.0002 185.37 66.7702 184.825 66.6202 184.195C66.4702 183.555 66.3952 182.86 66.3952 182.11V181.48C66.3952 179.7 66.8102 178.34 67.6402 177.4C68.4702 176.45 69.7102 175.975 71.3602 175.975C71.7002 175.975 72.0052 175.985 72.2752 176.005C72.5452 176.025 72.8352 176.055 73.1452 176.095V177.07C72.8352 177.02 72.5352 176.985 72.2452 176.965C71.9552 176.945 71.6402 176.935 71.3002 176.935C70.3602 176.935 69.6052 177.12 69.0352 177.49C68.4652 177.85 68.0502 178.375 67.7902 179.065C67.5402 179.755 67.4152 180.59 67.4152 181.57V182.635L67.1152 183.52C67.1252 182.76 67.2702 182.115 67.5502 181.585C67.8402 181.055 68.2452 180.65 68.7652 180.37C69.2852 180.09 69.8952 179.95 70.5952 179.95C71.3752 179.95 72.0352 180.11 72.5752 180.43C73.1152 180.75 73.5202 181.185 73.7902 181.735C74.0702 182.285 74.2102 182.9 74.2102 183.58C74.2102 184.27 74.0652 184.895 73.7752 185.455C73.4952 186.015 73.0752 186.46 72.5152 186.79C71.9552 187.12 71.2552 187.285 70.4152 187.285ZM70.4152 186.295C71.0152 186.295 71.5152 186.175 71.9152 185.935C72.3252 185.695 72.6302 185.37 72.8302 184.96C73.0302 184.55 73.1302 184.09 73.1302 183.58C73.1302 183.07 73.0302 182.615 72.8302 182.215C72.6402 181.805 72.3452 181.485 71.9452 181.255C71.5552 181.015 71.0702 180.895 70.4902 180.895C69.9202 180.895 69.4202 181.005 68.9902 181.225C68.5702 181.445 68.2402 181.76 68.0002 182.17C67.7702 182.57 67.6552 183.045 67.6552 183.595C67.6552 184.065 67.7552 184.505 67.9552 184.915C68.1552 185.325 68.4602 185.66 68.8702 185.92C69.2802 186.17 69.7952 186.295 70.4152 186.295ZM79.7497 187.255C78.9197 187.255 78.2247 187.09 77.6647 186.76C77.1047 186.42 76.6797 185.975 76.3897 185.425C76.0997 184.875 75.9547 184.285 75.9547 183.655H77.0497C77.0497 184.155 77.1547 184.6 77.3647 184.99C77.5847 185.38 77.8947 185.69 78.2947 185.92C78.6947 186.15 79.1797 186.265 79.7497 186.265C80.3197 186.265 80.8047 186.155 81.2047 185.935C81.6047 185.705 81.9097 185.395 82.1197 185.005C82.3397 184.605 82.4497 184.155 82.4497 183.655C82.4497 183.165 82.3447 182.72 82.1347 182.32C81.9247 181.92 81.6147 181.605 81.2047 181.375C80.8047 181.135 80.3197 181.015 79.7497 181.015C79.3497 181.015 78.9547 181.085 78.5647 181.225C78.1747 181.355 77.8497 181.55 77.5897 181.81H76.5547L77.1247 176.05H82.5697V177.025H77.7397L78.0547 176.635L77.6047 181.135L77.2597 181.06C77.5697 180.75 77.9347 180.505 78.3547 180.325C78.7747 180.145 79.2547 180.055 79.7947 180.055C80.6147 180.055 81.3047 180.225 81.8647 180.565C82.4247 180.905 82.8447 181.345 83.1247 181.885C83.4147 182.415 83.5597 182.975 83.5597 183.565V183.76C83.5597 184.35 83.4147 184.915 83.1247 185.455C82.8347 185.985 82.4047 186.42 81.8347 186.76C81.2747 187.09 80.5797 187.255 79.7497 187.255ZM89.0075 187.255C88.1775 187.255 87.4825 187.09 86.9225 186.76C86.3625 186.42 85.9375 185.975 85.6475 185.425C85.3575 184.875 85.2125 184.285 85.2125 183.655H86.3075C86.3075 184.155 86.4125 184.6 86.6225 184.99C86.8425 185.38 87.1525 185.69 87.5525 185.92C87.9525 186.15 88.4375 186.265 89.0075 186.265C89.5775 186.265 90.0625 186.155 90.4625 185.935C90.8625 185.705 91.1675 185.395 91.3775 185.005C91.5975 184.605 91.7075 184.155 91.7075 183.655C91.7075 183.165 91.6025 182.72 91.3925 182.32C91.1825 181.92 90.8725 181.605 90.4625 181.375C90.0625 181.135 89.5775 181.015 89.0075 181.015C88.6075 181.015 88.2125 181.085 87.8225 181.225C87.4325 181.355 87.1075 181.55 86.8475 181.81H85.8125L86.3825 176.05H91.8275V177.025H86.9975L87.3125 176.635L86.8625 181.135L86.5175 181.06C86.8275 180.75 87.1925 180.505 87.6125 180.325C88.0325 180.145 88.5125 180.055 89.0525 180.055C89.8725 180.055 90.5625 180.225 91.1225 180.565C91.6825 180.905 92.1025 181.345 92.3825 181.885C92.6725 182.415 92.8175 182.975 92.8175 183.565V183.76C92.8175 184.35 92.6725 184.915 92.3825 185.455C92.0925 185.985 91.6625 186.42 91.0925 186.76C90.5325 187.09 89.8375 187.255 89.0075 187.255Z" fill="#002B60"/>
<path d="M62.18 230V219.635L62.675 220.025H59.69V219.05H63.305V230H62.18ZM70.4152 230.285C69.6852 230.285 69.0652 230.16 68.5552 229.91C68.0452 229.65 67.6302 229.29 67.3102 228.83C67.0002 228.37 66.7702 227.825 66.6202 227.195C66.4702 226.555 66.3952 225.86 66.3952 225.11V224.48C66.3952 222.7 66.8102 221.34 67.6402 220.4C68.4702 219.45 69.7102 218.975 71.3602 218.975C71.7002 218.975 72.0052 218.985 72.2752 219.005C72.5452 219.025 72.8352 219.055 73.1452 219.095V220.07C72.8352 220.02 72.5352 219.985 72.2452 219.965C71.9552 219.945 71.6402 219.935 71.3002 219.935C70.3602 219.935 69.6052 220.12 69.0352 220.49C68.4652 220.85 68.0502 221.375 67.7902 222.065C67.5402 222.755 67.4152 223.59 67.4152 224.57V225.635L67.1152 226.52C67.1252 225.76 67.2702 225.115 67.5502 224.585C67.8402 224.055 68.2452 223.65 68.7652 223.37C69.2852 223.09 69.8952 222.95 70.5952 222.95C71.3752 222.95 72.0352 223.11 72.5752 223.43C73.1152 223.75 73.5202 224.185 73.7902 224.735C74.0702 225.285 74.2102 225.9 74.2102 226.58C74.2102 227.27 74.0652 227.895 73.7752 228.455C73.4952 229.015 73.0752 229.46 72.5152 229.79C71.9552 230.12 71.2552 230.285 70.4152 230.285ZM70.4152 229.295C71.0152 229.295 71.5152 229.175 71.9152 228.935C72.3252 228.695 72.6302 228.37 72.8302 227.96C73.0302 227.55 73.1302 227.09 73.1302 226.58C73.1302 226.07 73.0302 225.615 72.8302 225.215C72.6402 224.805 72.3452 224.485 71.9452 224.255C71.5552 224.015 71.0702 223.895 70.4902 223.895C69.9202 223.895 69.4202 224.005 68.9902 224.225C68.5702 224.445 68.2402 224.76 68.0002 225.17C67.7702 225.57 67.6552 226.045 67.6552 226.595C67.6552 227.065 67.7552 227.505 67.9552 227.915C68.1552 228.325 68.4602 228.66 68.8702 228.92C69.2802 229.17 69.7952 229.295 70.4152 229.295ZM79.7497 230.255C78.9197 230.255 78.2247 230.09 77.6647 229.76C77.1047 229.42 76.6797 228.975 76.3897 228.425C76.0997 227.875 75.9547 227.285 75.9547 226.655H77.0497C77.0497 227.155 77.1547 227.6 77.3647 227.99C77.5847 228.38 77.8947 228.69 78.2947 228.92C78.6947 229.15 79.1797 229.265 79.7497 229.265C80.3197 229.265 80.8047 229.155 81.2047 228.935C81.6047 228.705 81.9097 228.395 82.1197 228.005C82.3397 227.605 82.4497 227.155 82.4497 226.655C82.4497 226.165 82.3447 225.72 82.1347 225.32C81.9247 224.92 81.6147 224.605 81.2047 224.375C80.8047 224.135 80.3197 224.015 79.7497 224.015C79.3497 224.015 78.9547 224.085 78.5647 224.225C78.1747 224.355 77.8497 224.55 77.5897 224.81H76.5547L77.1247 219.05H82.5697V220.025H77.7397L78.0547 219.635L77.6047 224.135L77.2597 224.06C77.5697 223.75 77.9347 223.505 78.3547 223.325C78.7747 223.145 79.2547 223.055 79.7947 223.055C80.6147 223.055 81.3047 223.225 81.8647 223.565C82.4247 223.905 82.8447 224.345 83.1247 224.885C83.4147 225.415 83.5597 225.975 83.5597 226.565V226.76C83.5597 227.35 83.4147 227.915 83.1247 228.455C82.8347 228.985 82.4047 229.42 81.8347 229.76C81.2747 230.09 80.5797 230.255 79.7497 230.255ZM89.8325 230.255C89.0625 230.255 88.4025 230.12 87.8525 229.85C87.3025 229.58 86.8525 229.205 86.5025 228.725C86.1525 228.235 85.8925 227.665 85.7225 227.015C85.5625 226.355 85.4825 225.645 85.4825 224.885V224.18C85.4825 223.11 85.6375 222.17 85.9475 221.36C86.2675 220.55 86.7475 219.915 87.3875 219.455C88.0375 218.995 88.8525 218.765 89.8325 218.765C90.8125 218.765 91.6225 218.995 92.2625 219.455C92.9025 219.915 93.3775 220.55 93.6875 221.36C94.0075 222.17 94.1675 223.11 94.1675 224.18V224.885C94.1675 225.645 94.0825 226.355 93.9125 227.015C93.7525 227.665 93.4975 228.235 93.1475 228.725C92.7975 229.205 92.3475 229.58 91.7975 229.85C91.2475 230.12 90.5925 230.255 89.8325 230.255ZM89.8325 229.235C90.9125 229.235 91.7125 228.855 92.2325 228.095C92.7625 227.335 93.0275 226.15 93.0275 224.54C93.0275 222.86 92.7575 221.65 92.2175 220.91C91.6875 220.16 90.8925 219.785 89.8325 219.785C88.7625 219.785 87.9575 220.16 87.4175 220.91C86.8875 221.65 86.6225 222.85 86.6225 224.51C86.6225 226.13 86.8825 227.325 87.4025 228.095C87.9325 228.855 88.7425 229.235 89.8325 229.235Z" fill="#002B60"/>
<path d="M63.18 273V262.635L63.675 263.025H60.69V262.05H64.305V273H63.18ZM71.4152 273.285C70.6852 273.285 70.0652 273.16 69.5552 272.91C69.0452 272.65 68.6302 272.29 68.3102 271.83C68.0002 271.37 67.7702 270.825 67.6202 270.195C67.4702 269.555 67.3952 268.86 67.3952 268.11V267.48C67.3952 265.7 67.8102 264.34 68.6402 263.4C69.4702 262.45 70.7102 261.975 72.3602 261.975C72.7002 261.975 73.0052 261.985 73.2752 262.005C73.5452 262.025 73.8352 262.055 74.1452 262.095V263.07C73.8352 263.02 73.5352 262.985 73.2452 262.965C72.9552 262.945 72.6402 262.935 72.3002 262.935C71.3602 262.935 70.6052 263.12 70.0352 263.49C69.4652 263.85 69.0502 264.375 68.7902 265.065C68.5402 265.755 68.4152 266.59 68.4152 267.57V268.635L68.1152 269.52C68.1252 268.76 68.2702 268.115 68.5502 267.585C68.8402 267.055 69.2452 266.65 69.7652 266.37C70.2852 266.09 70.8952 265.95 71.5952 265.95C72.3752 265.95 73.0352 266.11 73.5752 266.43C74.1152 266.75 74.5202 267.185 74.7902 267.735C75.0702 268.285 75.2102 268.9 75.2102 269.58C75.2102 270.27 75.0652 270.895 74.7752 271.455C74.4952 272.015 74.0752 272.46 73.5152 272.79C72.9552 273.12 72.2552 273.285 71.4152 273.285ZM71.4152 272.295C72.0152 272.295 72.5152 272.175 72.9152 271.935C73.3252 271.695 73.6302 271.37 73.8302 270.96C74.0302 270.55 74.1302 270.09 74.1302 269.58C74.1302 269.07 74.0302 268.615 73.8302 268.215C73.6402 267.805 73.3452 267.485 72.9452 267.255C72.5552 267.015 72.0702 266.895 71.4902 266.895C70.9202 266.895 70.4202 267.005 69.9902 267.225C69.5702 267.445 69.2402 267.76 69.0002 268.17C68.7702 268.57 68.6552 269.045 68.6552 269.595C68.6552 270.065 68.7552 270.505 68.9552 270.915C69.1552 271.325 69.4602 271.66 69.8702 271.92C70.2802 272.17 70.7952 272.295 71.4152 272.295ZM76.8197 270.27V268.86L81.4697 261.84L82.2497 262.455L77.8397 269.145L77.9597 269.37H85.0997V270.27H76.8197ZM82.5497 273V265.29H83.5997V273H82.5497ZM90.2126 273.255C89.3826 273.255 88.6876 273.09 88.1276 272.76C87.5676 272.42 87.1426 271.975 86.8526 271.425C86.5626 270.875 86.4176 270.285 86.4176 269.655H87.5126C87.5126 270.155 87.6176 270.6 87.8276 270.99C88.0476 271.38 88.3576 271.69 88.7576 271.92C89.1576 272.15 89.6426 272.265 90.2126 272.265C90.7826 272.265 91.2676 272.155 91.6676 271.935C92.0676 271.705 92.3726 271.395 92.5826 271.005C92.8026 270.605 92.9126 270.155 92.9126 269.655C92.9126 269.165 92.8076 268.72 92.5976 268.32C92.3876 267.92 92.0776 267.605 91.6676 267.375C91.2676 267.135 90.7826 267.015 90.2126 267.015C89.8126 267.015 89.4176 267.085 89.0276 267.225C88.6376 267.355 88.3126 267.55 88.0526 267.81H87.0176L87.5876 262.05H93.0326V263.025H88.2026L88.5176 262.635L88.0676 267.135L87.7226 267.06C88.0326 266.75 88.3976 266.505 88.8176 266.325C89.2376 266.145 89.7176 266.055 90.2576 266.055C91.0776 266.055 91.7676 266.225 92.3276 266.565C92.8876 266.905 93.3076 267.345 93.5876 267.885C93.8776 268.415 94.0226 268.975 94.0226 269.565V269.76C94.0226 270.35 93.8776 270.915 93.5876 271.455C93.2976 271.985 92.8676 272.42 92.2976 272.76C91.7376 273.09 91.0426 273.255 90.2126 273.255Z" fill="#002B60"/>
<path d="M61.18 316V305.635L61.675 306.025H58.69V305.05H62.305V316H61.18ZM69.4152 316.285C68.6852 316.285 68.0652 316.16 67.5552 315.91C67.0452 315.65 66.6302 315.29 66.3102 314.83C66.0002 314.37 65.7702 313.825 65.6202 313.195C65.4702 312.555 65.3952 311.86 65.3952 311.11V310.48C65.3952 308.7 65.8102 307.34 66.6402 306.4C67.4702 305.45 68.7102 304.975 70.3602 304.975C70.7002 304.975 71.0052 304.985 71.2752 305.005C71.5452 305.025 71.8352 305.055 72.1452 305.095V306.07C71.8352 306.02 71.5352 305.985 71.2452 305.965C70.9552 305.945 70.6402 305.935 70.3002 305.935C69.3602 305.935 68.6052 306.12 68.0352 306.49C67.4652 306.85 67.0502 307.375 66.7902 308.065C66.5402 308.755 66.4152 309.59 66.4152 310.57V311.635L66.1152 312.52C66.1252 311.76 66.2702 311.115 66.5502 310.585C66.8402 310.055 67.2452 309.65 67.7652 309.37C68.2852 309.09 68.8952 308.95 69.5952 308.95C70.3752 308.95 71.0352 309.11 71.5752 309.43C72.1152 309.75 72.5202 310.185 72.7902 310.735C73.0702 311.285 73.2102 311.9 73.2102 312.58C73.2102 313.27 73.0652 313.895 72.7752 314.455C72.4952 315.015 72.0752 315.46 71.5152 315.79C70.9552 316.12 70.2552 316.285 69.4152 316.285ZM69.4152 315.295C70.0152 315.295 70.5152 315.175 70.9152 314.935C71.3252 314.695 71.6302 314.37 71.8302 313.96C72.0302 313.55 72.1302 313.09 72.1302 312.58C72.1302 312.07 72.0302 311.615 71.8302 311.215C71.6402 310.805 71.3452 310.485 70.9452 310.255C70.5552 310.015 70.0702 309.895 69.4902 309.895C68.9202 309.895 68.4202 310.005 67.9902 310.225C67.5702 310.445 67.2402 310.76 67.0002 311.17C66.7702 311.57 66.6552 312.045 66.6552 312.595C66.6552 313.065 66.7552 313.505 66.9552 313.915C67.1552 314.325 67.4602 314.66 67.8702 314.92C68.2802 315.17 68.7952 315.295 69.4152 315.295ZM74.8197 313.27V311.86L79.4697 304.84L80.2497 305.455L75.8397 312.145L75.9597 312.37H83.0997V313.27H74.8197ZM80.5497 316V308.29H81.5997V316H80.5497ZM89.0376 316.255C88.2676 316.255 87.6076 316.12 87.0576 315.85C86.5076 315.58 86.0576 315.205 85.7076 314.725C85.3576 314.235 85.0976 313.665 84.9276 313.015C84.7676 312.355 84.6876 311.645 84.6876 310.885V310.18C84.6876 309.11 84.8426 308.17 85.1526 307.36C85.4726 306.55 85.9526 305.915 86.5926 305.455C87.2426 304.995 88.0576 304.765 89.0376 304.765C90.0176 304.765 90.8276 304.995 91.4676 305.455C92.1076 305.915 92.5826 306.55 92.8926 307.36C93.2126 308.17 93.3726 309.11 93.3726 310.18V310.885C93.3726 311.645 93.2876 312.355 93.1176 313.015C92.9576 313.665 92.7026 314.235 92.3526 314.725C92.0026 315.205 91.5526 315.58 91.0026 315.85C90.4526 316.12 89.7976 316.255 89.0376 316.255ZM89.0376 315.235C90.1176 315.235 90.9176 314.855 91.4376 314.095C91.9676 313.335 92.2326 312.15 92.2326 310.54C92.2326 308.86 91.9626 307.65 91.4226 306.91C90.8926 306.16 90.0976 305.785 89.0376 305.785C87.9676 305.785 87.1626 306.16 86.6226 306.91C86.0926 307.65 85.8276 308.85 85.8276 310.51C85.8276 312.13 86.0876 313.325 86.6076 314.095C87.1376 314.855 87.9476 315.235 89.0376 315.235Z" fill="#002B60"/>
<path d="M62.18 359V348.635L62.675 349.025H59.69V348.05H63.305V359H62.18ZM70.4152 359.285C69.6852 359.285 69.0652 359.16 68.5552 358.91C68.0452 358.65 67.6302 358.29 67.3102 357.83C67.0002 357.37 66.7702 356.825 66.6202 356.195C66.4702 355.555 66.3952 354.86 66.3952 354.11V353.48C66.3952 351.7 66.8102 350.34 67.6402 349.4C68.4702 348.45 69.7102 347.975 71.3602 347.975C71.7002 347.975 72.0052 347.985 72.2752 348.005C72.5452 348.025 72.8352 348.055 73.1452 348.095V349.07C72.8352 349.02 72.5352 348.985 72.2452 348.965C71.9552 348.945 71.6402 348.935 71.3002 348.935C70.3602 348.935 69.6052 349.12 69.0352 349.49C68.4652 349.85 68.0502 350.375 67.7902 351.065C67.5402 351.755 67.4152 352.59 67.4152 353.57V354.635L67.1152 355.52C67.1252 354.76 67.2702 354.115 67.5502 353.585C67.8402 353.055 68.2452 352.65 68.7652 352.37C69.2852 352.09 69.8952 351.95 70.5952 351.95C71.3752 351.95 72.0352 352.11 72.5752 352.43C73.1152 352.75 73.5202 353.185 73.7902 353.735C74.0702 354.285 74.2102 354.9 74.2102 355.58C74.2102 356.27 74.0652 356.895 73.7752 357.455C73.4952 358.015 73.0752 358.46 72.5152 358.79C71.9552 359.12 71.2552 359.285 70.4152 359.285ZM70.4152 358.295C71.0152 358.295 71.5152 358.175 71.9152 357.935C72.3252 357.695 72.6302 357.37 72.8302 356.96C73.0302 356.55 73.1302 356.09 73.1302 355.58C73.1302 355.07 73.0302 354.615 72.8302 354.215C72.6402 353.805 72.3452 353.485 71.9452 353.255C71.5552 353.015 71.0702 352.895 70.4902 352.895C69.9202 352.895 69.4202 353.005 68.9902 353.225C68.5702 353.445 68.2402 353.76 68.0002 354.17C67.7702 354.57 67.6552 355.045 67.6552 355.595C67.6552 356.065 67.7552 356.505 67.9552 356.915C68.1552 357.325 68.4602 357.66 68.8702 357.92C69.2802 358.17 69.7952 358.295 70.4152 358.295ZM79.5097 359.255C78.7097 359.255 78.0297 359.1 77.4697 358.79C76.9197 358.48 76.4997 358.06 76.2097 357.53C75.9197 357 75.7747 356.42 75.7747 355.79H76.8697C76.8697 356.55 77.1047 357.155 77.5747 357.605C78.0447 358.045 78.6897 358.265 79.5097 358.265C80.0397 358.265 80.4997 358.165 80.8897 357.965C81.2897 357.765 81.5947 357.48 81.8047 357.11C82.0247 356.74 82.1347 356.31 82.1347 355.82C82.1347 355.07 81.8997 354.465 81.4297 354.005C80.9597 353.545 80.3247 353.315 79.5247 353.315C79.2047 353.315 78.9297 353.355 78.6997 353.435C78.4697 353.505 78.2647 353.595 78.0847 353.705L77.4697 352.655L81.8347 349.265L81.7147 349.025H76.2097V348.05H82.7647V349.67L78.8947 352.685L78.1597 352.7C78.3397 352.62 78.5447 352.555 78.7747 352.505C79.0047 352.445 79.2697 352.415 79.5697 352.415C80.3397 352.415 80.9947 352.565 81.5347 352.865C82.0847 353.165 82.5047 353.565 82.7947 354.065C83.0847 354.565 83.2297 355.115 83.2297 355.715V355.925C83.2297 356.505 83.0847 357.05 82.7947 357.56C82.5047 358.07 82.0847 358.48 81.5347 358.79C80.9847 359.1 80.3097 359.255 79.5097 359.255ZM88.8903 359.255C88.0603 359.255 87.3653 359.09 86.8053 358.76C86.2453 358.42 85.8203 357.975 85.5303 357.425C85.2403 356.875 85.0953 356.285 85.0953 355.655H86.1903C86.1903 356.155 86.2953 356.6 86.5053 356.99C86.7253 357.38 87.0353 357.69 87.4353 357.92C87.8353 358.15 88.3203 358.265 88.8903 358.265C89.4603 358.265 89.9453 358.155 90.3453 357.935C90.7453 357.705 91.0503 357.395 91.2603 357.005C91.4803 356.605 91.5903 356.155 91.5903 355.655C91.5903 355.165 91.4853 354.72 91.2753 354.32C91.0653 353.92 90.7553 353.605 90.3453 353.375C89.9453 353.135 89.4603 353.015 88.8903 353.015C88.4903 353.015 88.0953 353.085 87.7053 353.225C87.3153 353.355 86.9903 353.55 86.7303 353.81H85.6953L86.2653 348.05H91.7103V349.025H86.8803L87.1953 348.635L86.7453 353.135L86.4003 353.06C86.7103 352.75 87.0753 352.505 87.4953 352.325C87.9153 352.145 88.3953 352.055 88.9353 352.055C89.7553 352.055 90.4453 352.225 91.0053 352.565C91.5653 352.905 91.9853 353.345 92.2653 353.885C92.5553 354.415 92.7003 354.975 92.7003 355.565V355.76C92.7003 356.35 92.5553 356.915 92.2653 357.455C91.9753 357.985 91.5453 358.42 90.9753 358.76C90.4153 359.09 89.7203 359.255 88.8903 359.255Z" fill="#002B60"/>
<path d="M40.536 67.576C38.4027 67.576 36.5787 67.2027 35.064 66.456C33.5707 65.7093 32.3653 64.7387 31.448 63.544C30.5307 62.3493 29.8587 61.0587 29.432 59.672C29.0053 58.264 28.792 56.9093 28.792 55.608V54.904C28.792 53.496 29.0053 52.088 29.432 50.68C29.88 49.272 30.5627 47.992 31.48 46.84C32.3973 45.688 33.592 44.76 35.064 44.056C36.536 43.352 38.296 43 40.344 43C42.4347 43 44.2267 43.3627 45.72 44.088C47.2133 44.8133 48.3973 45.8267 49.272 47.128C50.1467 48.4293 50.68 49.9653 50.872 51.736H47.672C47.5013 50.4133 47.0747 49.3253 46.392 48.472C45.7093 47.5973 44.8453 46.9467 43.8 46.52C42.776 46.0933 41.624 45.88 40.344 45.88C38.9573 45.88 37.7413 46.1253 36.696 46.616C35.6507 47.0853 34.776 47.7573 34.072 48.632C33.3893 49.4853 32.8667 50.4773 32.504 51.608C32.1627 52.7387 31.992 53.9653 31.992 55.288C31.992 56.5467 32.1627 57.7413 32.504 58.872C32.8667 60.0027 33.4 61.0053 34.104 61.88C34.8293 62.7547 35.7253 63.448 36.792 63.96C37.8587 64.4507 39.1067 64.696 40.536 64.696C42.5413 64.696 44.2267 64.1947 45.592 63.192C46.9573 62.1893 47.7893 60.7387 48.088 58.84H51.288C51.0747 60.44 50.5307 61.9013 49.656 63.224C48.8027 64.5467 47.608 65.6027 46.072 66.392C44.5573 67.1813 42.712 67.576 40.536 67.576ZM61.3015 67.512C59.2748 67.512 57.7175 66.8507 56.6295 65.528C55.5415 64.2053 54.9975 62.296 54.9975 59.8V49.88H58.0695V60.408C58.0695 61.752 58.4322 62.808 59.1575 63.576C59.8828 64.3227 60.8642 64.696 62.1015 64.696C63.3815 64.696 64.4268 64.2907 65.2375 63.48C66.0482 62.648 66.4535 61.5173 66.4535 60.088V49.88H69.5255V67H67.0935V59.672H67.4775C67.4775 61.3573 67.2535 62.7867 66.8055 63.96C66.3575 65.112 65.6855 65.9973 64.7895 66.616C63.9148 67.2133 62.7948 67.512 61.4295 67.512H61.3015ZM75.4753 67V49.912H77.9073V56.952H77.7793C77.7793 54.456 78.3233 52.632 79.4113 51.48C80.5206 50.3067 82.1739 49.72 84.3713 49.72H84.9473V52.472H83.8593C82.1526 52.472 80.8406 52.9307 79.9233 53.848C79.0059 54.744 78.5473 56.0453 78.5473 57.752V67H75.4753ZM88.6003 67V49.912H91.0323V56.952H90.9043C90.9043 54.456 91.4483 52.632 92.5363 51.48C93.6456 50.3067 95.2989 49.72 97.4963 49.72H98.0723V52.472H96.9843C95.2776 52.472 93.9656 52.9307 93.0483 53.848C92.1309 54.744 91.6723 56.0453 91.6723 57.752V67H88.6003ZM108.802 67.576C107.308 67.576 106.018 67.32 104.93 66.808C103.842 66.296 102.956 65.624 102.274 64.792C101.591 63.9387 101.079 62.9893 100.738 61.944C100.418 60.8987 100.258 59.832 100.258 58.744V58.168C100.258 57.0587 100.418 55.9813 100.738 54.936C101.079 53.8907 101.591 52.952 102.274 52.12C102.956 51.2667 103.82 50.5947 104.866 50.104C105.932 49.592 107.18 49.336 108.61 49.336C110.466 49.336 111.991 49.7413 113.186 50.552C114.402 51.3413 115.298 52.3653 115.874 53.624C116.471 54.8827 116.77 56.2267 116.77 57.656V59.032H101.602V56.728H114.53L113.826 57.976C113.826 56.76 113.634 55.7147 113.25 54.84C112.866 53.944 112.29 53.2507 111.522 52.76C110.754 52.2693 109.783 52.024 108.61 52.024C107.394 52.024 106.38 52.3013 105.57 52.856C104.78 53.4107 104.183 54.168 103.778 55.128C103.394 56.088 103.202 57.1973 103.202 58.456C103.202 59.672 103.394 60.7707 103.778 61.752C104.183 62.712 104.802 63.48 105.634 64.056C106.466 64.6107 107.522 64.888 108.802 64.888C110.146 64.888 111.234 64.5893 112.066 63.992C112.919 63.3947 113.431 62.7013 113.602 61.912H116.482C116.247 63.0853 115.778 64.0987 115.074 64.952C114.37 65.8053 113.484 66.456 112.418 66.904C111.351 67.352 110.146 67.576 108.802 67.576ZM121.132 67V49.912H123.564V57.24H123.18C123.18 55.5547 123.404 54.136 123.852 52.984C124.321 51.8107 125.025 50.9253 125.964 50.328C126.902 49.7093 128.086 49.4 129.516 49.4H129.644C131.798 49.4 133.388 50.072 134.412 51.416C135.457 52.76 135.98 54.7013 135.98 57.24V67H132.908V56.6C132.908 55.2773 132.534 54.2213 131.788 53.432C131.041 52.6213 130.017 52.216 128.716 52.216C127.372 52.216 126.284 52.632 125.452 53.464C124.62 54.296 124.204 55.4053 124.204 56.792V67H121.132ZM148.256 67.192C146.976 67.192 145.867 67.0107 144.928 66.648C144.011 66.2853 143.296 65.6667 142.784 64.792C142.294 63.896 142.048 62.6907 142.048 61.176V44.728H144.992V61.56C144.992 62.4773 145.238 63.192 145.728 63.704C146.24 64.1947 146.955 64.44 147.872 64.44H150.88V67.192H148.256ZM139.104 52.216V49.912H150.88V52.216H139.104ZM171.531 67.576C170.123 67.576 168.864 67.2667 167.755 66.648C166.667 66.0293 165.803 65.1333 165.163 63.96C164.523 62.7653 164.171 61.336 164.107 59.672H164.939V67H162.507V43.64H165.579V55L164.491 57.336C164.576 55.48 164.949 53.9653 165.611 52.792C166.272 51.6187 167.136 50.7547 168.203 50.2C169.291 49.624 170.485 49.336 171.787 49.336C173.003 49.336 174.112 49.5707 175.115 50.04C176.117 50.488 176.981 51.1173 177.707 51.928C178.432 52.7173 178.987 53.6453 179.371 54.712C179.755 55.7573 179.947 56.888 179.947 58.104V58.68C179.947 59.896 179.744 61.0373 179.339 62.104C178.955 63.1707 178.389 64.12 177.642 64.952C176.896 65.7627 176 66.4027 174.955 66.872C173.931 67.3413 172.789 67.576 171.531 67.576ZM171.179 64.888C172.331 64.888 173.333 64.6107 174.187 64.056C175.04 63.5013 175.701 62.744 176.171 61.784C176.64 60.8027 176.875 59.672 176.875 58.392C176.875 57.112 176.629 55.992 176.139 55.032C175.669 54.072 175.008 53.336 174.155 52.824C173.301 52.2907 172.309 52.024 171.179 52.024C170.155 52.024 169.205 52.2587 168.331 52.728C167.456 53.176 166.752 53.8373 166.219 54.712C165.707 55.5653 165.451 56.6 165.451 57.816V59.288C165.451 60.4613 165.717 61.464 166.251 62.296C166.784 63.128 167.488 63.768 168.363 64.216C169.237 64.664 170.176 64.888 171.179 64.888ZM194.905 67V61.88H194.393V55.96C194.393 54.7867 194.084 53.9013 193.465 53.304C192.868 52.7067 191.982 52.408 190.809 52.408C190.148 52.408 189.465 52.4187 188.761 52.44C188.057 52.4613 187.385 52.4827 186.745 52.504C186.105 52.5253 185.55 52.5573 185.081 52.6V49.912C185.55 49.8693 186.041 49.8373 186.553 49.816C187.086 49.7733 187.63 49.752 188.185 49.752C188.74 49.7307 189.273 49.72 189.785 49.72C191.534 49.72 192.964 49.9333 194.073 50.36C195.182 50.7653 196.004 51.4373 196.537 52.376C197.07 53.3147 197.337 54.584 197.337 56.184V67H194.905ZM189.305 67.448C188.025 67.448 186.916 67.2347 185.977 66.808C185.06 66.36 184.345 65.72 183.833 64.888C183.342 64.056 183.097 63.0533 183.097 61.88C183.097 60.664 183.364 59.6507 183.897 58.84C184.452 58.0293 185.252 57.4213 186.297 57.016C187.342 56.5893 188.601 56.376 190.073 56.376H194.713V58.68H189.945C188.708 58.68 187.758 58.9787 187.097 59.576C186.436 60.1733 186.105 60.9413 186.105 61.88C186.105 62.8187 186.436 63.576 187.097 64.152C187.758 64.728 188.708 65.016 189.945 65.016C190.67 65.016 191.364 64.888 192.025 64.632C192.686 64.3547 193.23 63.9067 193.657 63.288C194.105 62.648 194.35 61.7733 194.393 60.664L195.225 61.88C195.118 63.096 194.82 64.12 194.329 64.952C193.86 65.7627 193.198 66.3813 192.345 66.808C191.513 67.2347 190.5 67.448 189.305 67.448ZM203.167 67V43.64H206.239V67H203.167ZM200.799 46.072V43.64H206.239V46.072H200.799ZM222.468 67V61.88H221.956V55.96C221.956 54.7867 221.646 53.9013 221.028 53.304C220.43 52.7067 219.545 52.408 218.372 52.408C217.71 52.408 217.028 52.4187 216.324 52.44C215.62 52.4613 214.948 52.4827 214.308 52.504C213.668 52.5253 213.113 52.5573 212.644 52.6V49.912C213.113 49.8693 213.604 49.8373 214.116 49.816C214.649 49.7733 215.193 49.752 215.748 49.752C216.302 49.7307 216.836 49.72 217.348 49.72C219.097 49.72 220.526 49.9333 221.636 50.36C222.745 50.7653 223.566 51.4373 224.1 52.376C224.633 53.3147 224.9 54.584 224.9 56.184V67H222.468ZM216.868 67.448C215.588 67.448 214.478 67.2347 213.54 66.808C212.622 66.36 211.908 65.72 211.396 64.888C210.905 64.056 210.66 63.0533 210.66 61.88C210.66 60.664 210.926 59.6507 211.46 58.84C212.014 58.0293 212.814 57.4213 213.86 57.016C214.905 56.5893 216.164 56.376 217.635 56.376H222.276V58.68H217.508C216.27 58.68 215.321 58.9787 214.66 59.576C213.998 60.1733 213.668 60.9413 213.668 61.88C213.668 62.8187 213.998 63.576 214.66 64.152C215.321 64.728 216.27 65.016 217.508 65.016C218.233 65.016 218.926 64.888 219.588 64.632C220.249 64.3547 220.793 63.9067 221.22 63.288C221.668 62.648 221.913 61.7733 221.956 60.664L222.788 61.88C222.681 63.096 222.382 64.12 221.892 64.952C221.422 65.7627 220.761 66.3813 219.908 66.808C219.076 67.2347 218.062 67.448 216.868 67.448ZM230.538 67V49.912H232.97V57.24H232.586C232.586 55.5547 232.81 54.136 233.258 52.984C233.727 51.8107 234.431 50.9253 235.37 50.328C236.308 49.7093 237.492 49.4 238.922 49.4H239.05C241.204 49.4 242.794 50.072 243.818 51.416C244.863 52.76 245.386 54.7013 245.386 57.24V67H242.314V56.6C242.314 55.2773 241.94 54.2213 241.194 53.432C240.447 52.6213 239.423 52.216 238.122 52.216C236.778 52.216 235.69 52.632 234.858 53.464C234.026 54.296 233.61 55.4053 233.61 56.792V67H230.538ZM258.335 67.576C256.863 67.576 255.583 67.32 254.495 66.808C253.428 66.296 252.543 65.6133 251.839 64.76C251.135 63.8853 250.601 62.9253 250.239 61.88C249.897 60.8347 249.727 59.7893 249.727 58.744V58.168C249.727 57.08 249.897 56.0133 250.239 54.968C250.601 53.9227 251.135 52.984 251.839 52.152C252.564 51.2987 253.46 50.616 254.527 50.104C255.593 49.592 256.841 49.336 258.271 49.336C259.7 49.336 260.98 49.6027 262.111 50.136C263.263 50.6693 264.18 51.4267 264.863 52.408C265.567 53.368 265.961 54.5093 266.047 55.832H263.103C262.953 54.7653 262.463 53.88 261.631 53.176C260.799 52.4507 259.679 52.088 258.271 52.088C257.055 52.088 256.041 52.3653 255.231 52.92C254.42 53.4747 253.812 54.232 253.407 55.192C253.001 56.152 252.799 57.24 252.799 58.456C252.799 59.6293 253.001 60.7067 253.407 61.688C253.812 62.648 254.42 63.416 255.231 63.992C256.063 64.5467 257.097 64.824 258.335 64.824C259.295 64.824 260.127 64.6533 260.831 64.312C261.535 63.9707 262.1 63.512 262.527 62.936C262.953 62.36 263.209 61.7093 263.295 60.984H266.239C266.175 62.328 265.78 63.4907 265.055 64.472C264.351 65.4533 263.412 66.2213 262.239 66.776C261.087 67.3093 259.785 67.576 258.335 67.576ZM277.677 67.576C276.183 67.576 274.893 67.32 273.805 66.808C272.717 66.296 271.831 65.624 271.149 64.792C270.466 63.9387 269.954 62.9893 269.613 61.944C269.293 60.8987 269.133 59.832 269.133 58.744V58.168C269.133 57.0587 269.293 55.9813 269.613 54.936C269.954 53.8907 270.466 52.952 271.149 52.12C271.831 51.2667 272.695 50.5947 273.741 50.104C274.807 49.592 276.055 49.336 277.485 49.336C279.341 49.336 280.866 49.7413 282.061 50.552C283.277 51.3413 284.173 52.3653 284.749 53.624C285.346 54.8827 285.645 56.2267 285.645 57.656V59.032H270.477V56.728H283.405L282.701 57.976C282.701 56.76 282.509 55.7147 282.125 54.84C281.741 53.944 281.165 53.2507 280.397 52.76C279.629 52.2693 278.658 52.024 277.485 52.024C276.269 52.024 275.255 52.3013 274.445 52.856C273.655 53.4107 273.058 54.168 272.653 55.128C272.269 56.088 272.077 57.1973 272.077 58.456C272.077 59.672 272.269 60.7707 272.653 61.752C273.058 62.712 273.677 63.48 274.509 64.056C275.341 64.6107 276.397 64.888 277.677 64.888C279.021 64.888 280.109 64.5893 280.941 63.992C281.794 63.3947 282.306 62.7013 282.477 61.912H285.357C285.122 63.0853 284.653 64.0987 283.949 64.952C283.245 65.8053 282.359 66.456 281.293 66.904C280.226 67.352 279.021 67.576 277.677 67.576ZM289.399 67V63.096H293.111V67H289.399ZM289.399 55.16V51.256H293.111V55.16H289.399Z" fill="white"/>
<path d="M40.856 477.576C38.7653 477.576 36.9627 477.203 35.448 476.456C33.9333 475.709 32.6853 474.728 31.704 473.512C30.7227 472.296 29.9867 470.995 29.496 469.608C29.0267 468.221 28.792 466.888 28.792 465.608V464.904C28.792 463.517 29.0373 462.12 29.528 460.712C30.0187 459.304 30.7653 458.024 31.768 456.872C32.7707 455.699 34.0187 454.76 35.512 454.056C37.0267 453.352 38.808 453 40.856 453C42.904 453 44.6747 453.352 46.168 454.056C47.6827 454.76 48.9413 455.699 49.944 456.872C50.9467 458.024 51.6933 459.304 52.184 460.712C52.6747 462.12 52.92 463.517 52.92 464.904V465.608C52.92 466.888 52.6747 468.221 52.184 469.608C51.7147 470.995 50.9893 472.296 50.008 473.512C49.0267 474.728 47.7787 475.709 46.264 476.456C44.7493 477.203 42.9467 477.576 40.856 477.576ZM40.856 474.696C42.2213 474.696 43.448 474.44 44.536 473.928C45.6453 473.416 46.584 472.723 47.352 471.848C48.12 470.952 48.7067 469.949 49.112 468.84C49.5173 467.709 49.72 466.525 49.72 465.288C49.72 463.987 49.5173 462.771 49.112 461.64C48.7067 460.509 48.12 459.517 47.352 458.664C46.584 457.789 45.6453 457.107 44.536 456.616C43.448 456.125 42.2213 455.88 40.856 455.88C39.4907 455.88 38.2533 456.125 37.144 456.616C36.056 457.107 35.128 457.789 34.36 458.664C33.592 459.517 33.0053 460.509 32.6 461.64C32.1947 462.771 31.992 463.987 31.992 465.288C31.992 466.525 32.1947 467.709 32.6 468.84C33.0053 469.949 33.592 470.952 34.36 471.848C35.128 472.723 36.056 473.416 37.144 473.928C38.2533 474.44 39.4907 474.696 40.856 474.696ZM58.0795 477V458.856C58.0795 456.957 58.5808 455.56 59.5835 454.664C60.5862 453.768 62.0582 453.32 63.9995 453.32H65.7275V455.88H63.4875C62.6982 455.88 62.0902 456.104 61.6635 456.552C61.2368 456.979 61.0235 457.576 61.0235 458.344V477H58.0795ZM69.0555 477V459.048C69.0555 457.149 69.5568 455.752 70.5595 454.856C71.5622 453.96 73.0342 453.512 74.9755 453.512H77.0875V456.072H74.4635C73.6742 456.072 73.0662 456.296 72.6395 456.744C72.2128 457.171 71.9995 457.768 71.9995 458.536V477H69.0555ZM55.7115 462.408V460.104H77.4075V462.408H55.7115ZM87.8643 477.576C86.3709 477.576 85.0803 477.32 83.9923 476.808C82.9043 476.296 82.0189 475.624 81.3363 474.792C80.6536 473.939 80.1416 472.989 79.8003 471.944C79.4803 470.899 79.3203 469.832 79.3203 468.744V468.168C79.3203 467.059 79.4803 465.981 79.8003 464.936C80.1416 463.891 80.6536 462.952 81.3363 462.12C82.0189 461.267 82.8829 460.595 83.9283 460.104C84.9949 459.592 86.2429 459.336 87.6723 459.336C89.5283 459.336 91.0536 459.741 92.2483 460.552C93.4643 461.341 94.3603 462.365 94.9363 463.624C95.5336 464.883 95.8323 466.227 95.8323 467.656V469.032H80.6643V466.728H93.5923L92.8883 467.976C92.8883 466.76 92.6963 465.715 92.3123 464.84C91.9283 463.944 91.3523 463.251 90.5843 462.76C89.8163 462.269 88.8456 462.024 87.6723 462.024C86.4563 462.024 85.4429 462.301 84.6323 462.856C83.8429 463.411 83.2456 464.168 82.8403 465.128C82.4563 466.088 82.2643 467.197 82.2643 468.456C82.2643 469.672 82.4563 470.771 82.8403 471.752C83.2456 472.712 83.8643 473.48 84.6963 474.056C85.5283 474.611 86.5843 474.888 87.8643 474.888C89.2083 474.888 90.2963 474.589 91.1283 473.992C91.9816 473.395 92.4936 472.701 92.6643 471.912H95.5443C95.3096 473.085 94.8403 474.099 94.1363 474.952C93.4323 475.805 92.5469 476.456 91.4803 476.904C90.4136 477.352 89.2083 477.576 87.8643 477.576ZM100.194 477V459.912H102.626V466.952H102.498C102.498 464.456 103.042 462.632 104.13 461.48C105.239 460.307 106.893 459.72 109.09 459.72H109.666V462.472H108.578C106.871 462.472 105.559 462.931 104.642 463.848C103.725 464.744 103.266 466.045 103.266 467.752V477H100.194ZM118.919 477.512C116.679 477.512 114.94 477.032 113.703 476.072C112.487 475.112 111.858 473.8 111.815 472.136H114.695C114.738 472.797 115.068 473.427 115.687 474.024C116.327 474.6 117.404 474.888 118.919 474.888C120.284 474.888 121.33 474.621 122.055 474.088C122.78 473.533 123.143 472.861 123.143 472.072C123.143 471.368 122.876 470.824 122.343 470.44C121.81 470.035 120.946 469.768 119.751 469.64L117.895 469.448C116.274 469.277 114.951 468.797 113.927 468.008C112.903 467.197 112.391 466.067 112.391 464.616C112.391 463.528 112.668 462.6 113.223 461.832C113.778 461.043 114.546 460.445 115.527 460.04C116.508 459.613 117.639 459.4 118.919 459.4C120.839 459.4 122.396 459.827 123.591 460.68C124.786 461.533 125.404 462.803 125.447 464.488H122.567C122.546 463.805 122.226 463.229 121.607 462.76C121.01 462.269 120.114 462.024 118.919 462.024C117.724 462.024 116.818 462.269 116.199 462.76C115.58 463.251 115.271 463.869 115.271 464.616C115.271 465.256 115.484 465.768 115.911 466.152C116.359 466.536 117.084 466.781 118.087 466.888L119.943 467.08C121.778 467.272 123.25 467.784 124.359 468.616C125.468 469.427 126.023 470.579 126.023 472.072C126.023 473.139 125.714 474.088 125.095 474.92C124.498 475.731 123.666 476.371 122.599 476.84C121.532 477.288 120.306 477.512 118.919 477.512ZM129.867 477V473.096H133.579V477H129.867ZM129.867 465.16V461.256H133.579V465.16H129.867Z" fill="white"/>
<path d="M342.392 67V43.512H345.528V67H342.392ZM356.824 67L349.08 56.6H352.76L360.632 67H356.824ZM344.344 58.552V55.768H350.616C351.597 55.768 352.44 55.5653 353.144 55.16C353.848 54.7547 354.392 54.2 354.776 53.496C355.16 52.7707 355.352 51.9493 355.352 51.032C355.352 50.1147 355.16 49.304 354.776 48.6C354.392 47.8747 353.848 47.3093 353.144 46.904C352.44 46.4773 351.597 46.264 350.616 46.264H344.344V43.512H350.04C351.747 43.512 353.24 43.768 354.52 44.28C355.8 44.792 356.792 45.5813 357.496 46.648C358.2 47.7147 358.552 49.0907 358.552 50.776V51.288C358.552 52.9733 358.189 54.3493 357.464 55.416C356.76 56.4827 355.768 57.272 354.488 57.784C353.229 58.296 351.747 58.552 350.04 58.552H344.344ZM371.518 67.576C369.726 67.576 368.212 67.2133 366.974 66.488C365.737 65.7413 364.798 64.7707 364.158 63.576C363.518 62.3813 363.198 61.112 363.198 59.768H366.206C366.206 60.7493 366.42 61.624 366.846 62.392C367.294 63.16 367.913 63.768 368.702 64.216C369.492 64.664 370.43 64.888 371.518 64.888C372.585 64.888 373.513 64.6747 374.302 64.248C375.113 63.8 375.742 63.192 376.19 62.424C376.638 61.6347 376.862 60.7493 376.862 59.768C376.862 58.7867 376.638 57.9013 376.19 57.112C375.764 56.3227 375.145 55.6933 374.334 55.224C373.545 54.7547 372.606 54.52 371.518 54.52C370.729 54.52 369.929 54.6587 369.118 54.936C368.308 55.192 367.657 55.5653 367.166 56.056H364.35L365.534 43.64H377.79V46.264H367.326L368.094 45.208L367.198 54.264L366.366 53.976C366.985 53.3573 367.732 52.8667 368.606 52.504C369.502 52.1413 370.516 51.96 371.646 51.96C373.438 51.96 374.942 52.3333 376.158 53.08C377.374 53.8053 378.292 54.7547 378.91 55.928C379.55 57.08 379.87 58.2853 379.87 59.544V59.992C379.87 61.2507 379.55 62.4667 378.91 63.64C378.27 64.792 377.321 65.7413 376.062 66.488C374.825 67.2133 373.31 67.576 371.518 67.576ZM383.776 67V63.16C383.776 62.2213 383.904 61.4213 384.16 60.76C384.437 60.0987 384.906 59.5013 385.568 58.968C386.229 58.4133 387.125 57.88 388.256 57.368L392.64 55.352C393.706 54.8613 394.549 54.232 395.168 53.464C395.786 52.6747 396.096 51.6613 396.096 50.424C396.096 48.9307 395.68 47.768 394.848 46.936C394.016 46.104 392.842 45.688 391.328 45.688C389.834 45.688 388.661 46.104 387.808 46.936C386.954 47.768 386.528 48.9307 386.528 50.424H383.52C383.52 49.08 383.797 47.8427 384.352 46.712C384.928 45.5813 385.792 44.6853 386.944 44.024C388.096 43.3413 389.557 43 391.328 43C393.098 43 394.549 43.3413 395.68 44.024C396.832 44.6853 397.685 45.56 398.24 46.648C398.816 47.736 399.104 48.92 399.104 50.2V50.648C399.104 52.3333 398.613 53.752 397.632 54.904C396.672 56.056 395.37 57.0053 393.728 57.752L389.344 59.768C388.362 60.216 387.701 60.664 387.36 61.112C387.018 61.56 386.848 62.1573 386.848 62.904V65.848L386.016 64.376H399.392V67H383.776ZM413.029 67.576C411.28 67.576 409.786 67.2773 408.549 66.68C407.333 66.0613 406.341 65.2293 405.573 64.184C404.826 63.1387 404.282 61.9333 403.941 60.568C403.6 59.1813 403.429 57.72 403.429 56.184V54.456C403.429 52.3013 403.76 50.36 404.421 48.632C405.104 46.904 406.149 45.5387 407.557 44.536C408.986 43.512 410.81 43 413.029 43C415.248 43 417.061 43.512 418.469 44.536C419.877 45.5387 420.912 46.904 421.573 48.632C422.256 50.36 422.597 52.3013 422.597 54.456V56.184C422.597 57.72 422.426 59.1813 422.085 60.568C421.744 61.9333 421.189 63.1387 420.421 64.184C419.674 65.2293 418.693 66.0613 417.477 66.68C416.261 67.2773 414.778 67.576 413.029 67.576ZM413.029 64.76C415.248 64.76 416.869 64.0133 417.893 62.52C418.938 61.0053 419.461 58.616 419.461 55.352C419.461 51.9387 418.928 49.496 417.861 48.024C416.816 46.552 415.205 45.816 413.029 45.816C410.832 45.816 409.2 46.552 408.133 48.024C407.088 49.496 406.565 51.9173 406.565 55.288C406.565 58.5733 407.088 60.9733 408.133 62.488C409.178 64.0027 410.81 64.76 413.029 64.76ZM444.092 67.576C442.342 67.576 440.849 67.2773 439.612 66.68C438.396 66.0613 437.404 65.2293 436.636 64.184C435.889 63.1387 435.345 61.9333 435.004 60.568C434.662 59.1813 434.492 57.72 434.492 56.184V54.456C434.492 52.3013 434.822 50.36 435.484 48.632C436.166 46.904 437.212 45.5387 438.62 44.536C440.049 43.512 441.873 43 444.092 43C446.31 43 448.124 43.512 449.532 44.536C450.94 45.5387 451.974 46.904 452.636 48.632C453.318 50.36 453.66 52.3013 453.66 54.456V56.184C453.66 57.72 453.489 59.1813 453.148 60.568C452.806 61.9333 452.252 63.1387 451.484 64.184C450.737 65.2293 449.756 66.0613 448.54 66.68C447.324 67.2773 445.841 67.576 444.092 67.576ZM444.092 64.76C446.31 64.76 447.932 64.0133 448.956 62.52C450.001 61.0053 450.524 58.616 450.524 55.352C450.524 51.9387 449.99 49.496 448.924 48.024C447.878 46.552 446.268 45.816 444.092 45.816C441.894 45.816 440.262 46.552 439.196 48.024C438.15 49.496 437.628 51.9173 437.628 55.288C437.628 58.5733 438.15 60.9733 439.196 62.488C440.241 64.0027 441.873 64.76 444.092 64.76ZM467.137 67.64C465.43 67.64 464.001 67.3413 462.849 66.744C461.718 66.1467 460.811 65.336 460.129 64.312C459.467 63.2667 458.987 62.072 458.689 60.728C458.411 59.384 458.273 57.976 458.273 56.504V54.968C458.273 51.2773 459.19 48.44 461.025 46.456C462.859 44.4507 465.515 43.448 468.993 43.448C469.825 43.448 470.529 43.4693 471.105 43.512C471.681 43.5547 472.31 43.6187 472.993 43.704V46.328C472.289 46.2427 471.638 46.1787 471.041 46.136C470.443 46.0933 469.718 46.072 468.865 46.072C466.923 46.072 465.387 46.4347 464.257 47.16C463.126 47.8853 462.315 48.9307 461.825 50.296C461.334 51.64 461.089 53.272 461.089 55.192V56.632L460.321 59.48C460.342 57.7947 460.662 56.3973 461.281 55.288C461.921 54.1787 462.785 53.3467 463.873 52.792C464.982 52.2373 466.251 51.96 467.681 51.96C469.345 51.96 470.753 52.3013 471.905 52.984C473.057 53.6453 473.921 54.5627 474.497 55.736C475.094 56.9093 475.393 58.2427 475.393 59.736C475.393 61.2507 475.083 62.6053 474.465 63.8C473.846 64.9947 472.918 65.9333 471.681 66.616C470.465 67.2987 468.95 67.64 467.137 67.64ZM467.137 64.952C468.31 64.952 469.291 64.728 470.081 64.28C470.87 63.832 471.457 63.224 471.841 62.456C472.246 61.6667 472.449 60.76 472.449 59.736C472.449 58.712 472.257 57.8053 471.873 57.016C471.489 56.2267 470.913 55.6187 470.145 55.192C469.398 54.744 468.47 54.52 467.361 54.52C466.273 54.52 465.291 54.7227 464.417 55.128C463.563 55.5333 462.891 56.1307 462.401 56.92C461.91 57.688 461.665 58.6373 461.665 59.768C461.665 60.7067 461.857 61.5707 462.241 62.36C462.625 63.1493 463.222 63.7787 464.033 64.248C464.843 64.7173 465.878 64.952 467.137 64.952ZM487.239 67.576C485.575 67.576 484.092 67.2773 482.791 66.68C481.511 66.0827 480.497 65.2507 479.751 64.184C479.025 63.1173 478.663 61.88 478.663 60.472C478.663 59.5333 478.844 58.6907 479.207 57.944C479.569 57.176 480.071 56.5147 480.711 55.96C481.351 55.4053 482.076 54.9787 482.887 54.68V54.36C482.247 54.0827 481.66 53.7093 481.127 53.24C480.615 52.7707 480.199 52.216 479.879 51.576C479.58 50.936 479.431 50.2107 479.431 49.4C479.431 48.056 479.783 46.9147 480.487 45.976C481.212 45.0373 482.161 44.3227 483.335 43.832C484.529 43.32 485.831 43.064 487.239 43.064C488.668 43.064 489.969 43.32 491.143 43.832C492.337 44.3227 493.287 45.0373 493.991 45.976C494.695 46.9147 495.047 48.056 495.047 49.4C495.047 50.2107 494.897 50.936 494.599 51.576C494.3 52.216 493.884 52.7707 493.351 53.24C492.839 53.7093 492.252 54.0827 491.591 54.36V54.68C492.423 54.9787 493.159 55.416 493.799 55.992C494.439 56.5467 494.94 57.208 495.303 57.976C495.665 58.7227 495.847 59.5547 495.847 60.472C495.847 61.88 495.473 63.1173 494.727 64.184C494.001 65.2507 492.988 66.0827 491.687 66.68C490.407 67.2773 488.924 67.576 487.239 67.576ZM487.239 64.952C488.412 64.952 489.415 64.7707 490.247 64.408C491.079 64.024 491.719 63.4907 492.167 62.808C492.615 62.104 492.839 61.2827 492.839 60.344C492.839 59.4053 492.615 58.5947 492.167 57.912C491.74 57.2293 491.111 56.7067 490.279 56.344C489.447 55.96 488.433 55.768 487.239 55.768C486.065 55.768 485.063 55.96 484.231 56.344C483.399 56.7067 482.759 57.2293 482.311 57.912C481.884 58.5947 481.671 59.4053 481.671 60.344C481.671 61.2827 481.884 62.104 482.311 62.808C482.759 63.4907 483.399 64.024 484.231 64.408C485.063 64.7707 486.065 64.952 487.239 64.952ZM487.239 53.336C488.689 53.336 489.852 53.0267 490.727 52.408C491.601 51.768 492.039 50.7973 492.039 49.496C492.039 48.1733 491.591 47.2133 490.695 46.616C489.82 45.9973 488.668 45.688 487.239 45.688C485.809 45.688 484.647 45.9973 483.751 46.616C482.876 47.2347 482.439 48.1947 482.439 49.496C482.439 50.7973 482.876 51.768 483.751 52.408C484.647 53.0267 485.809 53.336 487.239 53.336ZM516.623 67.576C514.873 67.576 513.38 67.2773 512.143 66.68C510.927 66.0613 509.935 65.2293 509.167 64.184C508.42 63.1387 507.876 61.9333 507.535 60.568C507.193 59.1813 507.023 57.72 507.023 56.184V54.456C507.023 52.3013 507.353 50.36 508.015 48.632C508.697 46.904 509.743 45.5387 511.151 44.536C512.58 43.512 514.404 43 516.623 43C518.841 43 520.655 43.512 522.063 44.536C523.471 45.5387 524.505 46.904 525.167 48.632C525.849 50.36 526.191 52.3013 526.191 54.456V56.184C526.191 57.72 526.02 59.1813 525.679 60.568C525.337 61.9333 524.783 63.1387 524.015 64.184C523.268 65.2293 522.287 66.0613 521.071 66.68C519.855 67.2773 518.372 67.576 516.623 67.576ZM516.623 64.76C518.841 64.76 520.463 64.0133 521.487 62.52C522.532 61.0053 523.055 58.616 523.055 55.352C523.055 51.9387 522.521 49.496 521.455 48.024C520.409 46.552 518.799 45.816 516.623 45.816C514.425 45.816 512.793 46.552 511.727 48.024C510.681 49.496 510.159 51.9173 510.159 55.288C510.159 58.5733 510.681 60.9733 511.727 62.488C512.772 64.0027 514.404 64.76 516.623 64.76ZM540.404 67.576C538.655 67.576 537.161 67.2773 535.924 66.68C534.708 66.0613 533.716 65.2293 532.948 64.184C532.201 63.1387 531.657 61.9333 531.316 60.568C530.975 59.1813 530.804 57.72 530.804 56.184V54.456C530.804 52.3013 531.135 50.36 531.796 48.632C532.479 46.904 533.524 45.5387 534.932 44.536C536.361 43.512 538.185 43 540.404 43C542.623 43 544.436 43.512 545.844 44.536C547.252 45.5387 548.287 46.904 548.948 48.632C549.631 50.36 549.972 52.3013 549.972 54.456V56.184C549.972 57.72 549.801 59.1813 549.46 60.568C549.119 61.9333 548.564 63.1387 547.796 64.184C547.049 65.2293 546.068 66.0613 544.852 66.68C543.636 67.2773 542.153 67.576 540.404 67.576ZM540.404 64.76C542.623 64.76 544.244 64.0133 545.268 62.52C546.313 61.0053 546.836 58.616 546.836 55.352C546.836 51.9387 546.303 49.496 545.236 48.024C544.191 46.552 542.58 45.816 540.404 45.816C538.207 45.816 536.575 46.552 535.508 48.024C534.463 49.496 533.94 51.9173 533.94 55.288C533.94 58.5733 534.463 60.9733 535.508 62.488C536.553 64.0027 538.185 64.76 540.404 64.76ZM564.185 67.576C562.436 67.576 560.943 67.2773 559.705 66.68C558.489 66.0613 557.497 65.2293 556.729 64.184C555.983 63.1387 555.439 61.9333 555.097 60.568C554.756 59.1813 554.585 57.72 554.585 56.184V54.456C554.585 52.3013 554.916 50.36 555.577 48.632C556.26 46.904 557.305 45.5387 558.713 44.536C560.143 43.512 561.967 43 564.185 43C566.404 43 568.217 43.512 569.625 44.536C571.033 45.5387 572.068 46.904 572.729 48.632C573.412 50.36 573.753 52.3013 573.753 54.456V56.184C573.753 57.72 573.583 59.1813 573.241 60.568C572.9 61.9333 572.345 63.1387 571.577 64.184C570.831 65.2293 569.849 66.0613 568.633 66.68C567.417 67.2773 565.935 67.576 564.185 67.576ZM564.185 64.76C566.404 64.76 568.025 64.0133 569.049 62.52C570.095 61.0053 570.617 58.616 570.617 55.352C570.617 51.9387 570.084 49.496 569.017 48.024C567.972 46.552 566.361 45.816 564.185 45.816C561.988 45.816 560.356 46.552 559.289 48.024C558.244 49.496 557.721 51.9173 557.721 55.288C557.721 58.5733 558.244 60.9733 559.289 62.488C560.335 64.0027 561.967 64.76 564.185 64.76Z" fill="white"/>
<rect x="27" y="492" width="830" height="91" rx="20" fill="white"/>
<path d="M108 135V359H585" stroke="#002B60"/>
<path d="M108.5 266L136 286L168 230L188 266L221.5 157.5L235.5 209L263.5 225L273.5 256L312 280L348.5 283.5L394 308L425 268.5L482.5 235.5L527.5 176L545.5 170L580 176" stroke="#002B60"/>
<path d="M110.392 552.432C108.824 552.432 107.472 552.152 106.336 551.592C105.2 551.032 104.264 550.296 103.528 549.384C102.792 548.472 102.24 547.496 101.872 546.456C101.52 545.416 101.344 544.416 101.344 543.456V542.928C101.344 541.888 101.528 540.84 101.896 539.784C102.264 538.728 102.824 537.768 103.576 536.904C104.328 536.024 105.264 535.32 106.384 534.792C107.52 534.264 108.856 534 110.392 534C111.928 534 113.256 534.264 114.376 534.792C115.512 535.32 116.456 536.024 117.208 536.904C117.96 537.768 118.52 538.728 118.888 539.784C119.256 540.84 119.44 541.888 119.44 542.928V543.456C119.44 544.416 119.256 545.416 118.888 546.456C118.536 547.496 117.992 548.472 117.256 549.384C116.52 550.296 115.584 551.032 114.448 551.592C113.312 552.152 111.96 552.432 110.392 552.432ZM110.392 550.272C111.416 550.272 112.336 550.08 113.152 549.696C113.984 549.312 114.688 548.792 115.264 548.136C115.84 547.464 116.28 546.712 116.584 545.88C116.888 545.032 117.04 544.144 117.04 543.216C117.04 542.24 116.888 541.328 116.584 540.48C116.28 539.632 115.84 538.888 115.264 538.248C114.688 537.592 113.984 537.08 113.152 536.712C112.336 536.344 111.416 536.16 110.392 536.16C109.368 536.16 108.44 536.344 107.608 536.712C106.792 537.08 106.096 537.592 105.52 538.248C104.944 538.888 104.504 539.632 104.2 540.48C103.896 541.328 103.744 542.24 103.744 543.216C103.744 544.144 103.896 545.032 104.2 545.88C104.504 546.712 104.944 547.464 105.52 548.136C106.096 548.792 106.792 549.312 107.608 549.696C108.44 550.08 109.368 550.272 110.392 550.272ZM123.31 552V538.392C123.31 536.968 123.686 535.92 124.438 535.248C125.19 534.576 126.294 534.24 127.75 534.24H129.046V536.16H127.366C126.774 536.16 126.318 536.328 125.998 536.664C125.678 536.984 125.518 537.432 125.518 538.008V552H123.31ZM131.542 552V538.536C131.542 537.112 131.918 536.064 132.67 535.392C133.422 534.72 134.526 534.384 135.982 534.384H137.566V536.304H135.598C135.006 536.304 134.55 536.472 134.23 536.808C133.91 537.128 133.75 537.576 133.75 538.152V552H131.542ZM121.534 541.056V539.328H137.806V541.056H121.534ZM145.648 552.432C144.528 552.432 143.56 552.24 142.744 551.856C141.928 551.472 141.264 550.968 140.752 550.344C140.24 549.704 139.856 548.992 139.6 548.208C139.36 547.424 139.24 546.624 139.24 545.808V545.376C139.24 544.544 139.36 543.736 139.6 542.952C139.856 542.168 140.24 541.464 140.752 540.84C141.264 540.2 141.912 539.696 142.696 539.328C143.496 538.944 144.432 538.752 145.504 538.752C146.896 538.752 148.04 539.056 148.936 539.664C149.848 540.256 150.52 541.024 150.952 541.968C151.4 542.912 151.624 543.92 151.624 544.992V546.024H140.248V544.296H149.944L149.416 545.232C149.416 544.32 149.272 543.536 148.984 542.88C148.696 542.208 148.264 541.688 147.688 541.32C147.112 540.952 146.384 540.768 145.504 540.768C144.592 540.768 143.832 540.976 143.224 541.392C142.632 541.808 142.184 542.376 141.88 543.096C141.592 543.816 141.448 544.648 141.448 545.592C141.448 546.504 141.592 547.328 141.88 548.064C142.184 548.784 142.648 549.36 143.272 549.792C143.896 550.208 144.688 550.416 145.648 550.416C146.656 550.416 147.472 550.192 148.096 549.744C148.736 549.296 149.12 548.776 149.248 548.184H151.408C151.232 549.064 150.88 549.824 150.352 550.464C149.824 551.104 149.16 551.592 148.36 551.928C147.56 552.264 146.656 552.432 145.648 552.432ZM154.896 552V539.184H156.72V544.464H156.624C156.624 542.592 157.032 541.224 157.848 540.36C158.68 539.48 159.92 539.04 161.568 539.04H162V541.104H161.184C159.904 541.104 158.92 541.448 158.232 542.136C157.544 542.808 157.2 543.784 157.2 545.064V552H154.896ZM164.283 552V549.072H167.067V552H164.283ZM164.283 543.12V540.192H167.067V543.12H164.283ZM176.817 552V534.384H179.169V552H176.817ZM187.641 552L181.833 544.2H184.593L190.497 552H187.641ZM178.281 545.664V543.576H182.985C183.721 543.576 184.353 543.424 184.881 543.12C185.409 542.816 185.817 542.4 186.105 541.872C186.393 541.328 186.537 540.712 186.537 540.024C186.537 539.336 186.393 538.728 186.105 538.2C185.817 537.656 185.409 537.232 184.881 536.928C184.353 536.608 183.721 536.448 182.985 536.448H178.281V534.384H182.553C183.833 534.384 184.953 534.576 185.913 534.96C186.873 535.344 187.617 535.936 188.145 536.736C188.673 537.536 188.937 538.568 188.937 539.832V540.216C188.937 541.48 188.665 542.512 188.121 543.312C187.593 544.112 186.849 544.704 185.889 545.088C184.945 545.472 183.833 545.664 182.553 545.664H178.281ZM192.902 552V549.12C192.902 548.416 192.998 547.816 193.19 547.32C193.398 546.824 193.75 546.376 194.246 545.976C194.742 545.56 195.414 545.16 196.262 544.776L199.55 543.264C200.35 542.896 200.982 542.424 201.446 541.848C201.91 541.256 202.142 540.496 202.142 539.568C202.142 538.448 201.83 537.576 201.206 536.952C200.582 536.328 199.702 536.016 198.566 536.016C197.446 536.016 196.566 536.328 195.926 536.952C195.286 537.576 194.966 538.448 194.966 539.568H192.71C192.71 538.56 192.918 537.632 193.334 536.784C193.766 535.936 194.414 535.264 195.278 534.768C196.142 534.256 197.238 534 198.566 534C199.894 534 200.982 534.256 201.83 534.768C202.694 535.264 203.334 535.92 203.75 536.736C204.182 537.552 204.398 538.44 204.398 539.4V539.736C204.398 541 204.03 542.064 203.294 542.928C202.574 543.792 201.598 544.504 200.366 545.064L197.078 546.576C196.342 546.912 195.846 547.248 195.59 547.584C195.334 547.92 195.206 548.368 195.206 548.928V551.136L194.582 550.032H204.614V552H192.902ZM214.842 552.432C213.53 552.432 212.41 552.208 211.482 551.76C210.57 551.296 209.826 550.672 209.25 549.888C208.69 549.104 208.282 548.2 208.026 547.176C207.77 546.136 207.642 545.04 207.642 543.888V542.592C207.642 540.976 207.89 539.52 208.386 538.224C208.898 536.928 209.682 535.904 210.738 535.152C211.81 534.384 213.178 534 214.842 534C216.506 534 217.866 534.384 218.922 535.152C219.978 535.904 220.754 536.928 221.25 538.224C221.762 539.52 222.018 540.976 222.018 542.592V543.888C222.018 545.04 221.89 546.136 221.634 547.176C221.378 548.2 220.962 549.104 220.386 549.888C219.826 550.672 219.09 551.296 218.178 551.76C217.266 552.208 216.154 552.432 214.842 552.432ZM214.842 550.32C216.506 550.32 217.722 549.76 218.49 548.64C219.274 547.504 219.666 545.712 219.666 543.264C219.666 540.704 219.266 538.872 218.466 537.768C217.682 536.664 216.474 536.112 214.842 536.112C213.194 536.112 211.97 536.664 211.17 537.768C210.386 538.872 209.994 540.688 209.994 543.216C209.994 545.68 210.386 547.48 211.17 548.616C211.954 549.752 213.178 550.32 214.842 550.32ZM232.678 552.432C231.366 552.432 230.246 552.208 229.318 551.76C228.406 551.296 227.662 550.672 227.086 549.888C226.526 549.104 226.118 548.2 225.862 547.176C225.606 546.136 225.478 545.04 225.478 543.888V542.592C225.478 540.976 225.726 539.52 226.222 538.224C226.734 536.928 227.518 535.904 228.574 535.152C229.646 534.384 231.014 534 232.678 534C234.342 534 235.702 534.384 236.758 535.152C237.814 535.904 238.59 536.928 239.086 538.224C239.598 539.52 239.854 540.976 239.854 542.592V543.888C239.854 545.04 239.726 546.136 239.47 547.176C239.214 548.2 238.798 549.104 238.222 549.888C237.662 550.672 236.926 551.296 236.014 551.76C235.102 552.208 233.99 552.432 232.678 552.432ZM232.678 550.32C234.342 550.32 235.558 549.76 236.326 548.64C237.11 547.504 237.502 545.712 237.502 543.264C237.502 540.704 237.102 538.872 236.302 537.768C235.518 536.664 234.31 536.112 232.678 536.112C231.03 536.112 229.806 536.664 229.006 537.768C228.222 538.872 227.83 540.688 227.83 543.216C227.83 545.68 228.222 547.48 229.006 548.616C229.79 549.752 231.014 550.32 232.678 550.32ZM250.514 552.432C249.202 552.432 248.082 552.208 247.154 551.76C246.242 551.296 245.498 550.672 244.922 549.888C244.362 549.104 243.954 548.2 243.698 547.176C243.442 546.136 243.314 545.04 243.314 543.888V542.592C243.314 540.976 243.562 539.52 244.058 538.224C244.57 536.928 245.354 535.904 246.41 535.152C247.482 534.384 248.85 534 250.514 534C252.178 534 253.538 534.384 254.594 535.152C255.65 535.904 256.426 536.928 256.922 538.224C257.434 539.52 257.69 540.976 257.69 542.592V543.888C257.69 545.04 257.562 546.136 257.306 547.176C257.05 548.2 256.634 549.104 256.058 549.888C255.498 550.672 254.762 551.296 253.85 551.76C252.938 552.208 251.826 552.432 250.514 552.432ZM250.514 550.32C252.178 550.32 253.394 549.76 254.162 548.64C254.946 547.504 255.338 545.712 255.338 543.264C255.338 540.704 254.938 538.872 254.138 537.768C253.354 536.664 252.146 536.112 250.514 536.112C248.866 536.112 247.642 536.664 246.842 537.768C246.058 538.872 245.666 540.688 245.666 543.216C245.666 545.68 246.058 547.48 246.842 548.616C247.626 549.752 248.85 550.32 250.514 550.32ZM270.835 552L273.427 539.616H276.547L279.571 552H277.603L274.579 539.664H275.347L272.731 552H270.835ZM269.659 552V550.176H272.323V552H269.659ZM269.131 552L265.507 539.184H267.715L271.243 552H269.131ZM278.083 552V550.176H280.747V552H278.083ZM279.163 552L282.235 539.184H284.323L281.179 552H279.163ZM288.059 552V539.184H290.363V552H288.059ZM286.091 541.008V539.184H290.363V541.008H286.091ZM288.707 537.12C288.195 537.12 287.811 536.984 287.555 536.712C287.315 536.44 287.195 536.096 287.195 535.68C287.195 535.264 287.315 534.92 287.555 534.648C287.811 534.376 288.195 534.24 288.707 534.24C289.219 534.24 289.595 534.376 289.835 534.648C290.091 534.92 290.219 535.264 290.219 535.68C290.219 536.096 290.091 536.44 289.835 536.712C289.595 536.984 289.219 537.12 288.707 537.12ZM299.809 552.144C298.849 552.144 298.017 552.008 297.313 551.736C296.625 551.464 296.089 551 295.705 550.344C295.337 549.672 295.153 548.768 295.153 547.632V535.296H297.361V547.92C297.361 548.608 297.545 549.144 297.913 549.528C298.297 549.896 298.833 550.08 299.521 550.08H301.777V552.144H299.809ZM292.945 540.912V539.184H301.777V540.912H292.945ZM305.036 552V534.48H307.34V544.944H306.764C306.764 543.68 306.924 542.592 307.244 541.68C307.58 540.752 308.092 540.04 308.78 539.544C309.468 539.048 310.348 538.8 311.42 538.8H311.516C313.052 538.8 314.212 539.312 314.996 540.336C315.78 541.344 316.172 542.792 316.172 544.68V552H313.868V544.2C313.868 543.16 313.572 542.352 312.98 541.776C312.404 541.2 311.652 540.912 310.724 540.912C309.7 540.912 308.876 541.256 308.252 541.944C307.644 542.616 307.34 543.504 307.34 544.608V552H305.036ZM328.537 552V535.632L329.593 536.448H324.649V534.48H330.841V552H328.537ZM342.647 552.432C341.335 552.432 340.215 552.208 339.287 551.76C338.375 551.296 337.631 550.672 337.055 549.888C336.495 549.104 336.087 548.2 335.831 547.176C335.575 546.136 335.447 545.04 335.447 543.888V542.592C335.447 540.976 335.695 539.52 336.191 538.224C336.703 536.928 337.487 535.904 338.543 535.152C339.615 534.384 340.983 534 342.647 534C344.311 534 345.671 534.384 346.727 535.152C347.783 535.904 348.559 536.928 349.055 538.224C349.567 539.52 349.823 540.976 349.823 542.592V543.888C349.823 545.04 349.695 546.136 349.439 547.176C349.183 548.2 348.767 549.104 348.191 549.888C347.631 550.672 346.895 551.296 345.983 551.76C345.071 552.208 343.959 552.432 342.647 552.432ZM342.647 550.32C344.311 550.32 345.527 549.76 346.295 548.64C347.079 547.504 347.471 545.712 347.471 543.264C347.471 540.704 347.071 538.872 346.271 537.768C345.487 536.664 344.279 536.112 342.647 536.112C340.999 536.112 339.775 536.664 338.975 537.768C338.191 538.872 337.799 540.688 337.799 543.216C337.799 545.68 338.191 547.48 338.975 548.616C339.759 549.752 340.983 550.32 342.647 550.32ZM357.579 552L364.203 534.48H366.027L359.403 552H357.579ZM356.283 543.888C355.371 543.888 354.627 543.68 354.051 543.264C353.491 542.848 353.075 542.296 352.803 541.608C352.547 540.92 352.419 540.176 352.419 539.376V538.752C352.419 537.888 352.555 537.12 352.827 536.448C353.099 535.76 353.523 535.224 354.099 534.84C354.675 534.44 355.403 534.24 356.283 534.24C357.179 534.24 357.907 534.44 358.467 534.84C359.043 535.224 359.467 535.76 359.739 536.448C360.011 537.12 360.147 537.888 360.147 538.752V539.376C360.147 540.176 360.011 540.92 359.739 541.608C359.483 542.296 359.075 542.848 358.515 543.264C357.955 543.68 357.211 543.888 356.283 543.888ZM356.283 542.304C357.019 542.304 357.563 542.04 357.915 541.512C358.283 540.968 358.467 540.16 358.467 539.088C358.467 537.952 358.283 537.128 357.915 536.616C357.547 536.088 357.003 535.824 356.283 535.824C355.563 535.824 355.019 536.088 354.651 536.616C354.283 537.128 354.099 537.944 354.099 539.064C354.099 540.136 354.275 540.944 354.627 541.488C354.995 542.032 355.547 542.304 356.283 542.304ZM367.227 552.24C366.315 552.24 365.571 552.032 364.995 551.616C364.435 551.2 364.019 550.648 363.747 549.96C363.491 549.272 363.363 548.528 363.363 547.728V547.104C363.363 546.24 363.499 545.472 363.771 544.8C364.043 544.112 364.467 543.576 365.043 543.192C365.619 542.792 366.347 542.592 367.227 542.592C368.123 542.592 368.851 542.792 369.411 543.192C369.987 543.576 370.411 544.112 370.683 544.8C370.955 545.472 371.091 546.24 371.091 547.104V547.728C371.091 548.528 370.955 549.272 370.683 549.96C370.427 550.648 370.019 551.2 369.459 551.616C368.899 552.032 368.155 552.24 367.227 552.24ZM367.227 550.656C367.963 550.656 368.507 550.392 368.859 549.864C369.227 549.32 369.411 548.512 369.411 547.44C369.411 546.304 369.227 545.48 368.859 544.968C368.491 544.44 367.947 544.176 367.227 544.176C366.507 544.176 365.963 544.44 365.595 544.968C365.227 545.48 365.043 546.296 365.043 547.416C365.043 548.488 365.219 549.296 365.571 549.84C365.939 550.384 366.491 550.656 367.227 550.656Z" fill="#002B60"/>
<circle cx="65" cy="544" r="5" fill="#002B60"/>
<path d="M684.264 151V140.088L684.968 140.632H681.672V139.32H685.8V151H684.264ZM690.663 151.064V149.624H693.575C694.279 149.624 694.903 149.512 695.447 149.288C696.001 149.053 696.471 148.733 696.855 148.328C697.249 147.923 697.548 147.448 697.751 146.904C697.953 146.36 698.055 145.773 698.055 145.144C698.055 144.483 697.953 143.885 697.751 143.352C697.548 142.808 697.249 142.339 696.855 141.944C696.471 141.539 696.001 141.229 695.447 141.016C694.903 140.803 694.279 140.696 693.575 140.696H690.663V139.256H693.415C694.471 139.256 695.388 139.421 696.167 139.752C696.945 140.072 697.591 140.509 698.103 141.064C698.625 141.608 699.015 142.221 699.271 142.904C699.527 143.576 699.655 144.264 699.655 144.968V145.32C699.655 146.003 699.527 146.685 699.271 147.368C699.015 148.051 698.625 148.669 698.103 149.224C697.591 149.779 696.945 150.227 696.167 150.568C695.388 150.899 694.471 151.064 693.415 151.064H690.663ZM689.415 151.064V139.256H690.983V151.064H689.415Z" fill="#002B60"/>
<path d="M685.056 187.288C684.16 187.288 683.403 187.107 682.784 186.744C682.165 186.371 681.696 185.885 681.376 185.288C681.056 184.691 680.896 184.056 680.896 183.384H682.4C682.4 183.875 682.507 184.312 682.72 184.696C682.944 185.08 683.253 185.384 683.648 185.608C684.043 185.832 684.512 185.944 685.056 185.944C685.589 185.944 686.053 185.837 686.448 185.624C686.853 185.4 687.168 185.096 687.392 184.712C687.616 184.317 687.728 183.875 687.728 183.384C687.728 182.893 687.616 182.451 687.392 182.056C687.179 181.661 686.869 181.347 686.464 181.112C686.069 180.877 685.6 180.76 685.056 180.76C684.661 180.76 684.261 180.829 683.856 180.968C683.451 181.096 683.125 181.283 682.88 181.528H681.472L682.064 175.32H688.192V176.632H682.96L683.344 176.104L682.896 180.632L682.48 180.488C682.789 180.179 683.163 179.933 683.6 179.752C684.048 179.571 684.555 179.48 685.12 179.48C686.016 179.48 686.768 179.667 687.376 180.04C687.984 180.403 688.443 180.877 688.752 181.464C689.072 182.04 689.232 182.643 689.232 183.272V183.496C689.232 184.125 689.072 184.733 688.752 185.32C688.432 185.896 687.957 186.371 687.328 186.744C686.709 187.107 685.952 187.288 685.056 187.288ZM692.913 187.064V185.624H695.825C696.529 185.624 697.153 185.512 697.697 185.288C698.251 185.053 698.721 184.733 699.105 184.328C699.499 183.923 699.798 183.448 700.001 182.904C700.203 182.36 700.305 181.773 700.305 181.144C700.305 180.483 700.203 179.885 700.001 179.352C699.798 178.808 699.499 178.339 699.105 177.944C698.721 177.539 698.251 177.229 697.697 177.016C697.153 176.803 696.529 176.696 695.825 176.696H692.913V175.256H695.665C696.721 175.256 697.638 175.421 698.417 175.752C699.195 176.072 699.841 176.509 700.353 177.064C700.875 177.608 701.265 178.221 701.521 178.904C701.777 179.576 701.905 180.264 701.905 180.968V181.32C701.905 182.003 701.777 182.685 701.521 183.368C701.265 184.051 700.875 184.669 700.353 185.224C699.841 185.779 699.195 186.227 698.417 186.568C697.638 186.899 696.721 187.064 695.665 187.064H692.913ZM691.665 187.064V175.256H693.233V187.064H691.665Z" fill="#002B60"/>
<path d="M682.264 223V212.088L682.968 212.632H679.672V211.32H683.8V223H682.264ZM687.415 223V211.32H689.495L692.951 219.112H693.207L696.647 211.32H698.743V223H697.175V213.032L697.287 213.064L693.975 220.584H692.055L688.727 213.064L688.855 213.032V223H687.415Z" fill="#002B60"/>
<path d="M682.968 254.456L679.256 247.32H680.888L684.024 253.432L683.416 253.256H685.304L684.664 253.432L687.608 247.32H689.144L685.656 254.456H682.968ZM683.544 259V254.136H685.08V259H683.544ZM693.531 259V248.408H695.099V259H693.531ZM689.979 248.728V247.32H698.651V248.728H689.979ZM702.007 259.064V257.624H704.919C705.623 257.624 706.247 257.512 706.791 257.288C707.345 257.053 707.815 256.733 708.199 256.328C708.593 255.923 708.892 255.448 709.095 254.904C709.297 254.36 709.399 253.773 709.399 253.144C709.399 252.483 709.297 251.885 709.095 251.352C708.892 250.808 708.593 250.339 708.199 249.944C707.815 249.539 707.345 249.229 706.791 249.016C706.247 248.803 705.623 248.696 704.919 248.696H702.007V247.256H704.759C705.815 247.256 706.732 247.421 707.51 247.752C708.289 248.072 708.935 248.509 709.447 249.064C709.969 249.608 710.359 250.221 710.615 250.904C710.871 251.576 710.999 252.264 710.999 252.968V253.32C710.999 254.003 710.871 254.685 710.615 255.368C710.359 256.051 709.969 256.669 709.447 257.224C708.935 257.779 708.289 258.227 707.51 258.568C706.732 258.899 705.815 259.064 704.759 259.064H702.007ZM700.759 259.064V247.256H702.327V259.064H700.759Z" fill="#002B60"/>
<rect x="681" y="158" width="18" height="2" rx="1" fill="#002B60"/>
<path d="M113.58 388.27C112.76 388.27 112.06 388.13 111.48 387.85C110.91 387.56 110.445 387.17 110.085 386.68C109.735 386.19 109.48 385.625 109.32 384.985C109.16 384.335 109.08 383.65 109.08 382.93V382.12C109.08 381.11 109.235 380.2 109.545 379.39C109.865 378.58 110.355 377.94 111.015 377.47C111.685 376.99 112.54 376.75 113.58 376.75C114.62 376.75 115.47 376.99 116.13 377.47C116.79 377.94 117.275 378.58 117.585 379.39C117.905 380.2 118.065 381.11 118.065 382.12V382.93C118.065 383.65 117.985 384.335 117.825 384.985C117.665 385.625 117.405 386.19 117.045 386.68C116.695 387.17 116.235 387.56 115.665 387.85C115.095 388.13 114.4 388.27 113.58 388.27ZM113.58 386.95C114.62 386.95 115.38 386.6 115.86 385.9C116.35 385.19 116.595 384.07 116.595 382.54C116.595 380.94 116.345 379.795 115.845 379.105C115.355 378.415 114.6 378.07 113.58 378.07C112.55 378.07 111.785 378.415 111.285 379.105C110.795 379.795 110.55 380.93 110.55 382.51C110.55 384.05 110.795 385.175 111.285 385.885C111.775 386.595 112.54 386.95 113.58 386.95ZM124.727 388.27C123.907 388.27 123.207 388.13 122.627 387.85C122.057 387.56 121.592 387.17 121.232 386.68C120.882 386.19 120.627 385.625 120.467 384.985C120.307 384.335 120.227 383.65 120.227 382.93V382.12C120.227 381.11 120.382 380.2 120.692 379.39C121.012 378.58 121.502 377.94 122.162 377.47C122.832 376.99 123.687 376.75 124.727 376.75C125.767 376.75 126.617 376.99 127.277 377.47C127.937 377.94 128.422 378.58 128.732 379.39C129.052 380.2 129.212 381.11 129.212 382.12V382.93C129.212 383.65 129.132 384.335 128.972 384.985C128.812 385.625 128.552 386.19 128.192 386.68C127.842 387.17 127.382 387.56 126.812 387.85C126.242 388.13 125.547 388.27 124.727 388.27ZM124.727 386.95C125.767 386.95 126.527 386.6 127.007 385.9C127.497 385.19 127.742 384.07 127.742 382.54C127.742 380.94 127.492 379.795 126.992 379.105C126.502 378.415 125.747 378.07 124.727 378.07C123.697 378.07 122.932 378.415 122.432 379.105C121.942 379.795 121.697 380.93 121.697 382.51C121.697 384.05 121.942 385.175 122.432 385.885C122.922 386.595 123.687 386.95 124.727 386.95ZM131.39 388V386.17H133.13V388H131.39ZM131.39 382.45V380.62H133.13V382.45H131.39ZM139.801 388.27C138.981 388.27 138.281 388.13 137.701 387.85C137.131 387.56 136.666 387.17 136.306 386.68C135.956 386.19 135.701 385.625 135.541 384.985C135.381 384.335 135.301 383.65 135.301 382.93V382.12C135.301 381.11 135.456 380.2 135.766 379.39C136.086 378.58 136.576 377.94 137.236 377.47C137.906 376.99 138.761 376.75 139.801 376.75C140.841 376.75 141.691 376.99 142.351 377.47C143.011 377.94 143.496 378.58 143.806 379.39C144.126 380.2 144.286 381.11 144.286 382.12V382.93C144.286 383.65 144.206 384.335 144.046 384.985C143.886 385.625 143.626 386.19 143.266 386.68C142.916 387.17 142.456 387.56 141.886 387.85C141.316 388.13 140.621 388.27 139.801 388.27ZM139.801 386.95C140.841 386.95 141.601 386.6 142.081 385.9C142.571 385.19 142.816 384.07 142.816 382.54C142.816 380.94 142.566 379.795 142.066 379.105C141.576 378.415 140.821 378.07 139.801 378.07C138.771 378.07 138.006 378.415 137.506 379.105C137.016 379.795 136.771 380.93 136.771 382.51C136.771 384.05 137.016 385.175 137.506 385.885C137.996 386.595 138.761 386.95 139.801 386.95ZM150.948 388.27C150.128 388.27 149.428 388.13 148.848 387.85C148.278 387.56 147.813 387.17 147.453 386.68C147.103 386.19 146.848 385.625 146.688 384.985C146.528 384.335 146.448 383.65 146.448 382.93V382.12C146.448 381.11 146.603 380.2 146.913 379.39C147.233 378.58 147.723 377.94 148.383 377.47C149.053 376.99 149.908 376.75 150.948 376.75C151.988 376.75 152.838 376.99 153.498 377.47C154.158 377.94 154.643 378.58 154.953 379.39C155.273 380.2 155.433 381.11 155.433 382.12V382.93C155.433 383.65 155.353 384.335 155.193 384.985C155.033 385.625 154.773 386.19 154.413 386.68C154.063 387.17 153.603 387.56 153.033 387.85C152.463 388.13 151.768 388.27 150.948 388.27ZM150.948 386.95C151.988 386.95 152.748 386.6 153.228 385.9C153.718 385.19 153.963 384.07 153.963 382.54C153.963 380.94 153.713 379.795 153.213 379.105C152.723 378.415 151.968 378.07 150.948 378.07C149.918 378.07 149.153 378.415 148.653 379.105C148.163 379.795 147.918 380.93 147.918 382.51C147.918 384.05 148.163 385.175 148.653 385.885C149.143 386.595 149.908 386.95 150.948 386.95Z" fill="#002B60"/>
<path d="M328.58 388.27C327.76 388.27 327.06 388.13 326.48 387.85C325.91 387.56 325.445 387.17 325.085 386.68C324.735 386.19 324.48 385.625 324.32 384.985C324.16 384.335 324.08 383.65 324.08 382.93V382.12C324.08 381.11 324.235 380.2 324.545 379.39C324.865 378.58 325.355 377.94 326.015 377.47C326.685 376.99 327.54 376.75 328.58 376.75C329.62 376.75 330.47 376.99 331.13 377.47C331.79 377.94 332.275 378.58 332.585 379.39C332.905 380.2 333.065 381.11 333.065 382.12V382.93C333.065 383.65 332.985 384.335 332.825 384.985C332.665 385.625 332.405 386.19 332.045 386.68C331.695 387.17 331.235 387.56 330.665 387.85C330.095 388.13 329.4 388.27 328.58 388.27ZM328.58 386.95C329.62 386.95 330.38 386.6 330.86 385.9C331.35 385.19 331.595 384.07 331.595 382.54C331.595 380.94 331.345 379.795 330.845 379.105C330.355 378.415 329.6 378.07 328.58 378.07C327.55 378.07 326.785 378.415 326.285 379.105C325.795 379.795 325.55 380.93 325.55 382.51C325.55 384.05 325.795 385.175 326.285 385.885C326.775 386.595 327.54 386.95 328.58 386.95ZM338.632 388.27C337.812 388.27 337.117 388.11 336.547 387.79C335.977 387.47 335.542 387.045 335.242 386.515C334.952 385.985 334.807 385.41 334.807 384.79H336.217C336.217 385.47 336.432 386.01 336.862 386.41C337.302 386.81 337.892 387.01 338.632 387.01C339.122 387.01 339.547 386.92 339.907 386.74C340.267 386.56 340.547 386.305 340.747 385.975C340.947 385.635 341.047 385.24 341.047 384.79C341.047 384.11 340.827 383.56 340.387 383.14C339.957 382.72 339.377 382.51 338.647 382.51C338.337 382.51 338.067 382.55 337.837 382.63C337.617 382.7 337.422 382.79 337.252 382.9L336.532 381.61L340.717 378.55L340.567 378.28H335.242V377.05H341.917V379.045L338.452 381.565L337.402 381.61C337.572 381.55 337.757 381.5 337.957 381.46C338.167 381.42 338.412 381.4 338.692 381.4C339.492 381.4 340.172 381.55 340.732 381.85C341.292 382.15 341.717 382.55 342.007 383.05C342.307 383.55 342.457 384.095 342.457 384.685V384.895C342.457 385.475 342.307 386.025 342.007 386.545C341.717 387.055 341.287 387.47 340.717 387.79C340.157 388.11 339.462 388.27 338.632 388.27ZM344.456 388V386.17H346.196V388H344.456ZM344.456 382.45V380.62H346.196V382.45H344.456ZM352.867 388.27C352.047 388.27 351.347 388.13 350.767 387.85C350.197 387.56 349.732 387.17 349.372 386.68C349.022 386.19 348.767 385.625 348.607 384.985C348.447 384.335 348.367 383.65 348.367 382.93V382.12C348.367 381.11 348.522 380.2 348.832 379.39C349.152 378.58 349.642 377.94 350.302 377.47C350.972 376.99 351.827 376.75 352.867 376.75C353.907 376.75 354.757 376.99 355.417 377.47C356.077 377.94 356.562 378.58 356.872 379.39C357.192 380.2 357.352 381.11 357.352 382.12V382.93C357.352 383.65 357.272 384.335 357.112 384.985C356.952 385.625 356.692 386.19 356.332 386.68C355.982 387.17 355.522 387.56 354.952 387.85C354.382 388.13 353.687 388.27 352.867 388.27ZM352.867 386.95C353.907 386.95 354.667 386.6 355.147 385.9C355.637 385.19 355.882 384.07 355.882 382.54C355.882 380.94 355.632 379.795 355.132 379.105C354.642 378.415 353.887 378.07 352.867 378.07C351.837 378.07 351.072 378.415 350.572 379.105C350.082 379.795 349.837 380.93 349.837 382.51C349.837 384.05 350.082 385.175 350.572 385.885C351.062 386.595 351.827 386.95 352.867 386.95ZM364.015 388.27C363.195 388.27 362.495 388.13 361.915 387.85C361.345 387.56 360.88 387.17 360.52 386.68C360.17 386.19 359.915 385.625 359.755 384.985C359.595 384.335 359.515 383.65 359.515 382.93V382.12C359.515 381.11 359.67 380.2 359.98 379.39C360.3 378.58 360.79 377.94 361.45 377.47C362.12 376.99 362.975 376.75 364.015 376.75C365.055 376.75 365.905 376.99 366.565 377.47C367.225 377.94 367.71 378.58 368.02 379.39C368.34 380.2 368.5 381.11 368.5 382.12V382.93C368.5 383.65 368.42 384.335 368.26 384.985C368.1 385.625 367.84 386.19 367.48 386.68C367.13 387.17 366.67 387.56 366.1 387.85C365.53 388.13 364.835 388.27 364.015 388.27ZM364.015 386.95C365.055 386.95 365.815 386.6 366.295 385.9C366.785 385.19 367.03 384.07 367.03 382.54C367.03 380.94 366.78 379.795 366.28 379.105C365.79 378.415 365.035 378.07 364.015 378.07C362.985 378.07 362.22 378.415 361.72 379.105C361.23 379.795 360.985 380.93 360.985 382.51C360.985 384.05 361.23 385.175 361.72 385.885C362.21 386.595 362.975 386.95 364.015 386.95Z" fill="#002B60"/>
<path d="M543.58 388.27C542.76 388.27 542.06 388.13 541.48 387.85C540.91 387.56 540.445 387.17 540.085 386.68C539.735 386.19 539.48 385.625 539.32 384.985C539.16 384.335 539.08 383.65 539.08 382.93V382.12C539.08 381.11 539.235 380.2 539.545 379.39C539.865 378.58 540.355 377.94 541.015 377.47C541.685 376.99 542.54 376.75 543.58 376.75C544.62 376.75 545.47 376.99 546.13 377.47C546.79 377.94 547.275 378.58 547.585 379.39C547.905 380.2 548.065 381.11 548.065 382.12V382.93C548.065 383.65 547.985 384.335 547.825 384.985C547.665 385.625 547.405 386.19 547.045 386.68C546.695 387.17 546.235 387.56 545.665 387.85C545.095 388.13 544.4 388.27 543.58 388.27ZM543.58 386.95C544.62 386.95 545.38 386.6 545.86 385.9C546.35 385.19 546.595 384.07 546.595 382.54C546.595 380.94 546.345 379.795 545.845 379.105C545.355 378.415 544.6 378.07 543.58 378.07C542.55 378.07 541.785 378.415 541.285 379.105C540.795 379.795 540.55 380.93 540.55 382.51C540.55 384.05 540.795 385.175 541.285 385.885C541.775 386.595 542.54 386.95 543.58 386.95ZM554.382 388.3C553.582 388.3 552.912 388.16 552.372 387.88C551.842 387.6 551.417 387.22 551.097 386.74C550.787 386.25 550.562 385.69 550.422 385.06C550.292 384.43 550.227 383.77 550.227 383.08V382.36C550.227 380.63 550.657 379.3 551.517 378.37C552.377 377.43 553.622 376.96 555.252 376.96C555.642 376.96 555.972 376.97 556.242 376.99C556.512 377.01 556.807 377.04 557.127 377.08V378.31C556.797 378.27 556.492 378.24 556.212 378.22C555.932 378.2 555.592 378.19 555.192 378.19C554.282 378.19 553.562 378.36 553.032 378.7C552.502 379.04 552.122 379.53 551.892 380.17C551.662 380.8 551.547 381.565 551.547 382.465V383.14L551.187 384.475C551.197 383.685 551.347 383.03 551.637 382.51C551.937 381.99 552.342 381.6 552.852 381.34C553.372 381.08 553.967 380.95 554.637 380.95C555.417 380.95 556.077 381.11 556.617 381.43C557.157 381.74 557.562 382.17 557.832 382.72C558.112 383.27 558.252 383.895 558.252 384.595C558.252 385.305 558.107 385.94 557.817 386.5C557.527 387.06 557.092 387.5 556.512 387.82C555.942 388.14 555.232 388.3 554.382 388.3ZM554.382 387.04C554.932 387.04 555.392 386.935 555.762 386.725C556.132 386.515 556.407 386.23 556.587 385.87C556.777 385.5 556.872 385.075 556.872 384.595C556.872 384.115 556.782 383.69 556.602 383.32C556.422 382.95 556.152 382.665 555.792 382.465C555.442 382.255 555.007 382.15 554.487 382.15C553.977 382.15 553.517 382.245 553.107 382.435C552.707 382.625 552.392 382.905 552.162 383.275C551.932 383.635 551.817 384.08 551.817 384.61C551.817 385.05 551.907 385.455 552.087 385.825C552.267 386.195 552.547 386.49 552.927 386.71C553.307 386.93 553.792 387.04 554.382 387.04ZM560.13 388V386.17H561.87V388H560.13ZM560.13 382.45V380.62H561.87V382.45H560.13ZM568.541 388.27C567.721 388.27 567.021 388.13 566.441 387.85C565.871 387.56 565.406 387.17 565.046 386.68C564.696 386.19 564.441 385.625 564.281 384.985C564.121 384.335 564.041 383.65 564.041 382.93V382.12C564.041 381.11 564.196 380.2 564.506 379.39C564.826 378.58 565.316 377.94 565.976 377.47C566.646 376.99 567.501 376.75 568.541 376.75C569.581 376.75 570.431 376.99 571.091 377.47C571.751 377.94 572.236 378.58 572.546 379.39C572.866 380.2 573.026 381.11 573.026 382.12V382.93C573.026 383.65 572.946 384.335 572.786 384.985C572.626 385.625 572.366 386.19 572.006 386.68C571.656 387.17 571.196 387.56 570.626 387.85C570.056 388.13 569.361 388.27 568.541 388.27ZM568.541 386.95C569.581 386.95 570.341 386.6 570.821 385.9C571.311 385.19 571.556 384.07 571.556 382.54C571.556 380.94 571.306 379.795 570.806 379.105C570.316 378.415 569.561 378.07 568.541 378.07C567.511 378.07 566.746 378.415 566.246 379.105C565.756 379.795 565.511 380.93 565.511 382.51C565.511 384.05 565.756 385.175 566.246 385.885C566.736 386.595 567.501 386.95 568.541 386.95ZM579.688 388.27C578.868 388.27 578.168 388.13 577.588 387.85C577.018 387.56 576.553 387.17 576.193 386.68C575.843 386.19 575.588 385.625 575.428 384.985C575.268 384.335 575.188 383.65 575.188 382.93V382.12C575.188 381.11 575.343 380.2 575.653 379.39C575.973 378.58 576.463 377.94 577.123 377.47C577.793 376.99 578.648 376.75 579.688 376.75C580.728 376.75 581.578 376.99 582.238 377.47C582.898 377.94 583.383 378.58 583.693 379.39C584.013 380.2 584.173 381.11 584.173 382.12V382.93C584.173 383.65 584.093 384.335 583.933 384.985C583.773 385.625 583.513 386.19 583.153 386.68C582.803 387.17 582.343 387.56 581.773 387.85C581.203 388.13 580.508 388.27 579.688 388.27ZM579.688 386.95C580.728 386.95 581.488 386.6 581.968 385.9C582.458 385.19 582.703 384.07 582.703 382.54C582.703 380.94 582.453 379.795 581.953 379.105C581.463 378.415 580.708 378.07 579.688 378.07C578.658 378.07 577.893 378.415 577.393 379.105C576.903 379.795 576.658 380.93 576.658 382.51C576.658 384.05 576.903 385.175 577.393 385.885C577.883 386.595 578.648 386.95 579.688 386.95Z" fill="#002B60"/>
</svg>
