<svg width="564" height="283" viewBox="0 0 564 283" fill="none" xmlns="http://www.w3.org/2000/svg">
<path d="M260.18 164.045V68.0452H269.14V164.045H260.18ZM312.215 165.709C306.327 165.709 300.951 164.194 296.087 161.165C291.266 158.136 287.404 154.082 284.503 149.005C281.644 143.885 280.215 138.232 280.215 132.045C280.215 127.352 281.047 122.978 282.711 118.925C284.375 114.829 286.658 111.245 289.559 108.173C292.503 105.058 295.916 102.626 299.799 100.877C303.682 99.1278 307.82 98.2532 312.215 98.2532C318.103 98.2532 323.458 99.7678 328.279 102.797C333.143 105.826 337.004 109.901 339.863 115.021C342.764 120.141 344.215 125.816 344.215 132.045C344.215 136.696 343.383 141.048 341.719 145.101C340.055 149.154 337.751 152.738 334.807 155.853C331.906 158.925 328.514 161.336 324.631 163.085C320.791 164.834 316.652 165.709 312.215 165.709ZM312.215 156.749C316.567 156.749 320.471 155.618 323.927 153.357C327.426 151.053 330.178 148.024 332.183 144.269C334.231 140.514 335.255 136.44 335.255 132.045C335.255 127.565 334.231 123.448 332.183 119.693C330.135 115.896 327.362 112.866 323.863 110.605C320.407 108.344 316.524 107.213 312.215 107.213C307.863 107.213 303.938 108.365 300.439 110.669C296.983 112.93 294.231 115.938 292.183 119.693C290.178 123.448 289.175 127.565 289.175 132.045C289.175 136.653 290.22 140.834 292.311 144.589C294.402 148.301 297.196 151.266 300.695 153.485C304.194 155.661 308.034 156.749 312.215 156.749ZM407.038 100.045H415.998V164.045H407.038L406.718 152.141C404.627 156.194 401.705 159.48 397.95 161.997C394.195 164.472 389.715 165.709 384.51 165.709C379.817 165.709 375.422 164.834 371.326 163.085C367.23 161.293 363.625 158.84 360.51 155.725C357.395 152.61 354.963 149.005 353.214 144.909C351.465 140.813 350.59 136.418 350.59 131.725C350.59 127.117 351.443 122.786 353.15 118.733C354.899 114.68 357.289 111.117 360.318 108.045C363.39 104.973 366.931 102.584 370.942 100.877C374.995 99.1278 379.326 98.2532 383.934 98.2532C389.267 98.2532 393.918 99.5332 397.886 102.093C401.854 104.61 405.011 107.917 407.358 112.013L407.038 100.045ZM384.318 157.005C388.883 157.005 392.809 155.896 396.094 153.677C399.379 151.416 401.897 148.386 403.646 144.589C405.438 140.792 406.334 136.61 406.334 132.045C406.334 127.352 405.438 123.128 403.646 119.373C401.854 115.576 399.315 112.568 396.03 110.349C392.745 108.13 388.841 107.021 384.318 107.021C379.795 107.021 375.657 108.152 371.902 110.413C368.19 112.632 365.225 115.64 363.006 119.437C360.83 123.234 359.742 127.437 359.742 132.045C359.742 136.696 360.873 140.92 363.134 144.717C365.395 148.472 368.382 151.458 372.094 153.677C375.849 155.896 379.923 157.005 384.318 157.005ZM484.613 124.429V164.045H475.653V126.221C475.653 122.722 474.8 119.544 473.093 116.685C471.386 113.826 469.104 111.544 466.245 109.837C463.386 108.13 460.208 107.277 456.709 107.277C453.253 107.277 450.074 108.13 447.173 109.837C444.314 111.544 442.032 113.826 440.325 116.685C438.618 119.544 437.765 122.722 437.765 126.221V164.045H428.805V100.045H437.765V108.877C440.026 105.634 442.97 103.053 446.597 101.133C450.224 99.2132 454.17 98.2532 458.437 98.2532C463.258 98.2532 467.653 99.4265 471.621 101.773C475.589 104.12 478.746 107.277 481.093 111.245C483.44 115.213 484.613 119.608 484.613 124.429ZM548.788 100.045H557.748V164.045H548.788L548.468 152.141C546.377 156.194 543.455 159.48 539.7 161.997C535.945 164.472 531.465 165.709 526.26 165.709C521.567 165.709 517.172 164.834 513.076 163.085C508.98 161.293 505.375 158.84 502.26 155.725C499.145 152.61 496.713 149.005 494.964 144.909C493.215 140.813 492.34 136.418 492.34 131.725C492.34 127.117 493.193 122.786 494.9 118.733C496.649 114.68 499.039 111.117 502.068 108.045C505.14 104.973 508.681 102.584 512.692 100.877C516.745 99.1278 521.076 98.2532 525.684 98.2532C531.017 98.2532 535.668 99.5332 539.636 102.093C543.604 104.61 546.761 107.917 549.108 112.013L548.788 100.045ZM526.068 157.005C530.633 157.005 534.559 155.896 537.844 153.677C541.129 151.416 543.647 148.386 545.396 144.589C547.188 140.792 548.084 136.61 548.084 132.045C548.084 127.352 547.188 123.128 545.396 119.373C543.604 115.576 541.065 112.568 537.78 110.349C534.495 108.13 530.591 107.021 526.068 107.021C521.545 107.021 517.407 108.152 513.652 110.413C509.94 112.632 506.975 115.64 504.756 119.437C502.58 123.234 501.492 127.437 501.492 132.045C501.492 136.696 502.623 140.92 504.884 144.717C507.145 148.472 510.132 151.458 513.844 153.677C517.599 155.896 521.673 157.005 526.068 157.005Z" fill="white"/>
<rect x="187.383" y="94.0452" width="132" height="132" transform="rotate(135 187.383 94.0452)" stroke="white"/>
<rect x="187.838" y="188.59" width="132" height="132" transform="rotate(135 187.838 188.59)" stroke="white"/>
<rect x="139.539" y="141.099" width="64.4612" height="63.9364" transform="rotate(135 139.539 141.099)" fill="#89BC47"/>
</svg>
