<svg width="60" height="60" viewBox="0 0 60 60" fill="none" xmlns="http://www.w3.org/2000/svg">
<circle cx="30" cy="30" r="30" fill="#002B60"/>
<path d="M26.3819 37V35.224C26.3819 34.7653 26.4459 34.376 26.5739 34.056C26.7019 33.736 26.9259 33.4427 27.2459 33.176C27.5659 32.9093 28.0033 32.6533 28.5579 32.408L30.8459 31.336C31.4006 31.08 31.8433 30.744 32.1739 30.328C32.5046 29.912 32.6699 29.368 32.6699 28.696C32.6699 27.8747 32.4353 27.2347 31.9659 26.776C31.5073 26.3067 30.8726 26.072 30.0619 26.072C29.2619 26.072 28.6219 26.3067 28.1419 26.776C27.6726 27.2347 27.4379 27.8747 27.4379 28.696H26.2699C26.2699 28.0027 26.4139 27.3787 26.7019 26.824C26.9899 26.2693 27.4166 25.832 27.9819 25.512C28.5473 25.1813 29.2406 25.016 30.0619 25.016C30.8939 25.016 31.5873 25.1813 32.1419 25.512C32.6966 25.832 33.1179 26.264 33.4059 26.808C33.6939 27.3413 33.8379 27.9333 33.8379 28.584V28.808C33.8379 29.64 33.5979 30.3387 33.1179 30.904C32.6486 31.4587 32.0299 31.9173 31.2619 32.28L28.9579 33.352C28.4139 33.5973 28.0459 33.8533 27.8539 34.12C27.6726 34.376 27.5819 34.7067 27.5819 35.112V36.536L27.2299 35.96H34.0299V37H26.3819Z" fill="white"/>
</svg>
