<svg width="60" height="60" viewBox="0 0 60 60" fill="none" xmlns="http://www.w3.org/2000/svg">
<circle cx="30" cy="30" r="29.5" stroke="#CFCFCF"/>
<path d="M30.877 37.272C30.0237 37.272 29.2983 37.1067 28.701 36.776C28.1143 36.4453 27.6663 35.9973 27.357 35.432C27.0477 34.8667 26.893 34.248 26.893 33.576H28.061C28.061 34.3867 28.3117 35.032 28.813 35.512C29.3143 35.9813 30.0023 36.216 30.877 36.216C31.4423 36.216 31.933 36.1093 32.349 35.896C32.7757 35.6827 33.101 35.3787 33.325 34.984C33.5597 34.5893 33.677 34.1307 33.677 33.608C33.677 32.808 33.4263 32.1627 32.925 31.672C32.4237 31.1813 31.7463 30.936 30.893 30.936C30.5517 30.936 30.2583 30.9787 30.013 31.064C29.7677 31.1387 29.549 31.2347 29.357 31.352L28.701 30.232L33.357 26.616L33.229 26.36H27.357V25.32H34.349V27.048L30.221 30.264L29.437 30.28C29.629 30.1947 29.8477 30.1253 30.093 30.072C30.3383 30.008 30.621 29.976 30.941 29.976C31.7623 29.976 32.461 30.136 33.037 30.456C33.6237 30.776 34.0717 31.2027 34.381 31.736C34.6903 32.2693 34.845 32.856 34.845 33.496V33.72C34.845 34.3387 34.6903 34.92 34.381 35.464C34.0717 36.008 33.6237 36.4453 33.037 36.776C32.4503 37.1067 31.7303 37.272 30.877 37.272Z" fill="white"/>
</svg>
