<svg width="248" height="78" viewBox="0 0 248 78" fill="none" xmlns="http://www.w3.org/2000/svg">
<rect x="47" y="2" width="173" height="72" fill="white" fill-opacity="0.55"/>
<ellipse cx="39" cy="38.5" rx="39" ry="38.5" fill="#023059"/>
<circle cx="209" cy="39" r="39" fill="#828282" fill-opacity="0.85"/>
<g clip-path="url(#clip0_77_284)">
<path d="M219.109 27.1755C219.018 27.0842 218.924 27.0184 218.827 26.9774C218.736 26.939 218.63 26.9201 218.509 26.9201C218.387 26.9201 218.279 26.9395 218.187 26.9785C218.092 27.0187 218 27.0834 217.912 27.1728L217.906 27.1786L216.189 28.8908C215.931 29.1467 215.534 29.1752 215.245 28.9774C215.043 28.8468 214.828 28.7209 214.602 28.5988C214.363 28.4694 214.128 28.3531 213.899 28.248C213.66 28.139 213.416 28.0363 213.168 27.94C212.943 27.8526 212.693 27.7635 212.419 27.6733C212.106 27.5701 211.907 27.279 211.907 26.9661V24.3325C211.907 24.2063 211.887 24.0948 211.848 23.9977C211.808 23.9017 211.748 23.8123 211.665 23.7293C211.584 23.6483 211.496 23.5882 211.399 23.5492C211.302 23.5096 211.191 23.49 211.064 23.49H207.759C207.642 23.49 207.538 23.5088 207.448 23.5464C207.351 23.586 207.257 23.6507 207.164 23.741L207.163 23.7418C207.081 23.8237 207.02 23.9108 206.982 24.0035C206.942 24.0984 206.922 24.208 206.922 24.3325V26.7436C206.922 27.1102 206.657 27.4149 206.308 27.4771C206.044 27.5402 205.799 27.6055 205.576 27.6739C205.332 27.7486 205.087 27.8335 204.841 27.9295C204.829 27.9342 204.817 27.9387 204.804 27.9425C204.589 28.0261 204.363 28.1229 204.125 28.2328C203.883 28.3443 203.658 28.4575 203.449 28.5712C203.155 28.7314 202.8 28.6719 202.573 28.4486L202.573 28.4489L200.671 26.5743C200.665 26.5685 200.66 26.5627 200.654 26.5569C200.573 26.4711 200.487 26.4085 200.398 26.3695C200.312 26.3322 200.211 26.3131 200.092 26.3131C199.975 26.3131 199.87 26.333 199.777 26.3726C199.676 26.4157 199.579 26.4833 199.486 26.5743L199.486 26.5748L197.178 28.8874L197.177 28.8891L197.178 28.8905C197.084 28.9851 197.017 29.0792 196.977 29.1727C196.939 29.2635 196.92 29.3694 196.92 29.4906C196.92 29.6129 196.939 29.7208 196.978 29.8132C197.018 29.9082 197.083 30 197.172 30.088L197.178 30.0938L198.89 31.8115C199.146 32.0688 199.175 32.4665 198.977 32.755C198.846 32.9573 198.72 33.1723 198.599 33.3981C198.469 33.6377 198.353 33.8718 198.248 34.1014C198.138 34.3399 198.036 34.584 197.939 34.8322C197.852 35.0569 197.763 35.3075 197.673 35.5809C197.57 35.8941 197.278 36.0928 196.965 36.0928L194.333 36.0931C194.206 36.0931 194.095 36.1127 193.998 36.152C193.902 36.1913 193.813 36.2511 193.733 36.3321L193.73 36.3354C193.649 36.4165 193.588 36.5048 193.549 36.6005C193.51 36.6976 193.49 36.8091 193.49 36.9356V40.241C193.49 40.3577 193.509 40.4618 193.546 40.5522C193.586 40.6485 193.651 40.7429 193.741 40.8364L193.742 40.837C193.824 40.9189 193.911 40.9795 194.004 41.0179C194.099 41.0578 194.208 41.0777 194.333 41.0777H196.744C197.11 41.0777 197.415 41.3425 197.477 41.6914C197.54 41.9559 197.605 42.2008 197.674 42.4235C197.749 42.6676 197.833 42.9127 197.929 43.1587C198.02 43.393 198.122 43.6365 198.236 43.8889C198.353 44.147 198.467 44.3822 198.577 44.595C198.731 44.89 198.667 45.2414 198.443 45.4646L198.443 45.4652L196.568 47.3345L196.557 47.3462C196.471 47.4275 196.408 47.5127 196.369 47.6018C196.332 47.6876 196.313 47.7894 196.313 47.9078C196.313 48.0254 196.333 48.1303 196.372 48.2227C196.415 48.324 196.483 48.4211 196.574 48.5138L198.873 50.8394C198.963 50.9227 199.057 50.9836 199.155 51.022C199.254 51.061 199.365 51.0801 199.491 51.0801C199.617 51.0801 199.73 51.0605 199.831 51.0209C199.927 50.983 200.017 50.9249 200.101 50.8463L201.805 49.1151C202.062 48.8539 202.465 48.8226 202.757 49.024C202.958 49.1541 203.173 49.2794 203.398 49.4009C203.638 49.5306 203.872 49.6469 204.101 49.7517C204.34 49.8613 204.584 49.9639 204.832 50.0602C205.057 50.1474 205.307 50.2365 205.581 50.3267C205.894 50.4299 206.093 50.7213 206.093 51.0339L206.093 53.6675C206.093 53.7936 206.113 53.9052 206.152 54.0023C206.191 54.0983 206.251 54.1866 206.332 54.2676L206.334 54.2693L206.335 54.2676C206.497 54.43 206.697 54.51 206.935 54.51H210.24C210.357 54.51 210.461 54.4915 210.552 54.4538C210.648 54.414 210.742 54.3492 210.835 54.259L210.837 54.2582C210.918 54.1763 210.979 54.0892 211.017 53.9967C211.058 53.9016 211.078 53.7923 211.078 53.6678V51.2564C211.078 50.89 211.342 50.5851 211.691 50.5231C211.955 50.4601 212.2 50.3945 212.423 50.3264C212.667 50.2514 212.912 50.1668 213.158 50.071C213.393 49.9805 213.636 49.8782 213.889 49.7642C214.147 49.6477 214.382 49.534 214.594 49.4233C214.889 49.2692 215.241 49.3334 215.464 49.5578L215.465 49.5572L217.334 51.4318L217.345 51.4437C217.428 51.53 217.513 51.5923 217.602 51.631C217.688 51.6684 217.793 51.6875 217.918 51.6875C218.041 51.6875 218.148 51.6675 218.239 51.628C218.332 51.5879 218.418 51.5262 218.496 51.4434C218.505 51.434 218.514 51.4249 218.524 51.4158L220.839 49.127C220.922 49.0373 220.983 48.9432 221.022 48.845C221.061 48.7465 221.08 48.6344 221.08 48.5094C221.08 48.3832 221.061 48.2695 221.021 48.1693C220.982 48.073 220.925 47.9828 220.846 47.899L219.115 46.1946C218.853 45.9375 218.822 45.5352 219.024 45.2433C219.154 45.0416 219.279 44.8271 219.401 44.6022C219.53 44.3629 219.647 44.1285 219.751 43.8988C219.861 43.6603 219.963 43.4163 220.06 43.1681C220.147 42.9434 220.236 42.6927 220.326 42.4191C220.43 42.1059 220.721 41.9072 221.034 41.9072L223.667 41.9069C223.793 41.9069 223.905 41.8873 224.002 41.8477C224.098 41.8084 224.186 41.7487 224.267 41.6679L224.27 41.6648C224.351 41.5835 224.412 41.4952 224.451 41.3992C224.49 41.3024 224.509 41.1909 224.509 41.0644V37.759C224.509 37.6423 224.491 37.5382 224.453 37.4475C224.414 37.3515 224.349 37.2568 224.259 37.1633L224.258 37.1625C224.176 37.0806 224.089 37.0203 223.996 36.9815C223.902 36.9417 223.792 36.9218 223.667 36.9218H221.256C220.885 36.9218 220.578 36.6509 220.521 36.2959C220.463 36.0626 220.397 35.8261 220.322 35.5859C220.25 35.3554 220.166 35.1116 220.067 34.854C220.062 34.8416 220.058 34.8289 220.054 34.8161C219.961 34.5713 219.865 34.341 219.767 34.1255C219.66 33.8923 219.548 33.6667 219.428 33.4487C219.268 33.1546 219.328 32.7999 219.551 32.573V32.5727L221.425 30.6707C221.431 30.6649 221.437 30.6591 221.443 30.6533C221.529 30.5722 221.591 30.487 221.63 30.3979C221.668 30.3121 221.687 30.2106 221.687 30.0922C221.687 29.9746 221.667 29.8694 221.627 29.777C221.584 29.6757 221.517 29.5789 221.425 29.4859L221.425 29.4854L219.112 27.178L219.109 27.1755ZM219.403 25.6092C219.68 25.7262 219.932 25.8975 220.159 26.1244L220.16 26.1247L222.479 28.4384L222.484 28.4442C222.708 28.6711 222.878 28.9209 222.995 29.1948C223.116 29.4773 223.177 29.7764 223.177 30.0922C223.177 30.4126 223.114 30.7119 222.992 30.9917C222.872 31.2662 222.698 31.5102 222.472 31.7257L220.987 33.2323C221.031 33.3234 221.074 33.4155 221.117 33.5088C221.236 33.7683 221.345 34.0284 221.444 34.2888C221.449 34.3004 221.454 34.3123 221.458 34.3244C221.557 34.5837 221.652 34.8593 221.742 35.1493C221.771 35.2428 221.799 35.3369 221.826 35.4318H223.667C223.987 35.4318 224.286 35.4904 224.567 35.6077C224.842 35.7231 225.091 35.8933 225.314 36.1171L225.329 36.1329C225.548 36.3592 225.714 36.6088 225.827 36.8827C225.943 37.1614 226 37.4533 226 37.759V41.0641C226 41.382 225.944 41.6798 225.83 41.9578C225.717 42.2354 225.548 42.4874 225.322 42.714L225.321 42.7149L225.319 42.7168L225.318 42.7179C225.091 42.944 224.839 43.1136 224.561 43.227C224.283 43.3402 223.985 43.3966 223.667 43.3966H221.562C221.525 43.4957 221.487 43.5981 221.446 43.7027C221.34 43.9735 221.226 44.2444 221.103 44.515C220.974 44.7948 220.844 45.059 220.711 45.3055C220.668 45.3863 220.623 45.4669 220.577 45.5474L221.891 46.8412C221.901 46.8503 221.91 46.8595 221.92 46.8694C222.135 47.0974 222.298 47.3506 222.407 47.6273C222.516 47.9051 222.571 48.1995 222.571 48.5088C222.571 48.8171 222.517 49.109 222.408 49.3857C222.299 49.6615 222.139 49.9136 221.925 50.1421C221.918 50.1499 221.91 50.1579 221.902 50.1657L219.57 52.4713C219.351 52.7007 219.104 52.8761 218.828 52.9951C218.548 53.1158 218.246 53.1769 217.919 53.1769C217.599 53.1769 217.298 53.1144 217.014 52.9923C216.734 52.8709 216.486 52.6952 216.27 52.4672L214.791 50.9847C214.692 51.0323 214.596 51.0774 214.502 51.12C214.25 51.2334 213.981 51.3455 213.695 51.4559C213.426 51.5605 213.146 51.657 212.855 51.7461C212.758 51.7757 212.663 51.804 212.569 51.8308V53.6675C212.569 53.9871 212.51 54.2867 212.392 54.567C212.277 54.8429 212.107 55.0916 211.883 55.3141L211.867 55.3301C211.641 55.5484 211.391 55.7142 211.117 55.8276C210.838 55.943 210.547 56.0003 210.241 56.0003H206.935C206.286 56.0003 205.737 55.7762 205.282 55.3213L205.283 55.3199C205.056 55.0927 204.886 54.8401 204.773 54.5615C204.659 54.2831 204.603 53.9857 204.603 53.6678V51.5624C204.503 51.5256 204.401 51.4871 204.296 51.4462C204.026 51.3408 203.755 51.2268 203.484 51.1028C203.205 50.975 202.94 50.8444 202.694 50.7113C202.613 50.6679 202.532 50.623 202.452 50.5771L201.158 51.8914C201.149 51.9011 201.14 51.9105 201.13 51.9199C200.902 52.136 200.649 52.2981 200.372 52.4071C200.094 52.5167 199.8 52.5712 199.491 52.5712C199.182 52.5712 198.89 52.5173 198.614 52.4083C198.338 52.2995 198.086 52.139 197.857 51.926L197.858 51.9254C197.85 51.9182 197.841 51.9105 197.834 51.9025L195.515 49.5567C195.292 49.3298 195.121 49.0796 195.005 48.8057C194.884 48.5229 194.823 48.2241 194.823 47.9087C194.823 47.5883 194.885 47.2889 195.008 47.0089C195.129 46.7325 195.304 46.487 195.533 46.2701L197.015 44.7915C196.968 44.6927 196.922 44.5958 196.88 44.5009C196.766 44.2494 196.654 43.9807 196.544 43.6952C196.439 43.4265 196.343 43.1462 196.254 42.8552C196.224 42.758 196.196 42.6629 196.169 42.5688H194.333C194.013 42.5688 193.713 42.5098 193.433 42.3925C193.157 42.2771 192.908 42.1073 192.686 41.8831L192.67 41.8665C192.452 41.6405 192.286 41.3906 192.173 41.117C192.057 40.8381 192 40.5462 192 40.241V36.9356C192 36.6177 192.056 36.32 192.17 36.0419C192.283 35.7638 192.452 35.5117 192.679 35.2851L192.679 35.2848L192.681 35.2835L192.682 35.2821C192.909 35.0557 193.161 34.8864 193.439 34.773C193.717 34.6595 194.015 34.6034 194.333 34.6034H196.438C196.475 34.504 196.513 34.4019 196.554 34.2971C196.659 34.0264 196.774 33.7556 196.898 33.4847C197.026 33.2049 197.156 32.9407 197.289 32.6942C197.333 32.612 197.379 32.5298 197.426 32.4476L196.131 31.1483L196.131 31.148C195.902 30.9231 195.729 30.6699 195.611 30.3902C195.49 30.1046 195.43 29.8041 195.43 29.4912C195.43 29.1788 195.489 28.8811 195.609 28.5969C195.728 28.3155 195.9 28.0623 196.125 27.8374L196.126 27.8388L198.438 25.5212L198.444 25.5154C198.671 25.2924 198.921 25.1216 199.195 25.0049C199.478 24.8845 199.776 24.8231 200.092 24.8231C200.412 24.8231 200.712 24.8854 200.992 25.0076C201.266 25.1275 201.51 25.3018 201.726 25.5278L203.231 27.0115C203.322 26.9666 203.412 26.9237 203.502 26.8822C203.733 26.7754 203.989 26.6678 204.269 26.5593C204.281 26.5538 204.293 26.5488 204.305 26.5441C204.574 26.4395 204.854 26.3427 205.145 26.2536C205.242 26.224 205.338 26.1958 205.432 26.1689V24.3325C205.432 24.0129 205.491 23.7133 205.608 23.4333C205.723 23.1571 205.893 22.9084 206.117 22.6859L206.133 22.6701C206.359 22.4516 206.609 22.2861 206.883 22.1729C207.162 22.0573 207.453 22 207.759 22H211.064C211.382 22 211.68 22.0562 211.958 22.1696C212.237 22.2836 212.49 22.4538 212.718 22.6815C212.943 22.9073 213.113 23.1596 213.227 23.4388C213.341 23.7169 213.397 24.0146 213.397 24.3322V26.4379C213.496 26.4747 213.598 26.5134 213.703 26.5541C213.973 26.6592 214.244 26.7735 214.515 26.8972C214.795 27.025 215.059 27.1556 215.305 27.289C215.388 27.3335 215.47 27.3792 215.552 27.4262L216.852 26.131L216.852 26.1307C217.077 25.9019 217.33 25.7287 217.61 25.6106C217.895 25.4896 218.195 25.4299 218.508 25.4299C218.821 25.4299 219.119 25.4891 219.403 25.6092ZM209 31.78C209.493 31.78 209.974 31.827 210.443 31.9205C210.903 32.0127 211.361 32.1541 211.813 32.345L211.818 32.3472L211.819 32.345C212.251 32.5315 212.66 32.7542 213.048 33.0138C213.432 33.2708 213.787 33.5611 214.113 33.884L214.116 33.887C214.439 34.2132 214.729 34.5685 214.986 34.9525C215.246 35.3399 215.468 35.7494 215.655 36.1813C215.663 36.2018 215.671 36.2223 215.678 36.243C215.857 36.6772 215.991 37.1152 216.079 37.5576C216.173 38.0269 216.22 38.5075 216.22 39C216.22 39.4928 216.173 39.9737 216.079 40.4427C215.987 40.9039 215.845 41.3605 215.655 41.8131L215.653 41.8181L215.655 41.8192C215.468 42.2511 215.246 42.6604 214.986 43.0477C214.729 43.4318 214.439 43.7871 214.116 44.1133L214.113 44.1163C213.787 44.4395 213.432 44.7298 213.047 44.9868C212.66 45.2463 212.251 45.4688 211.819 45.6553C211.799 45.6639 211.778 45.6719 211.757 45.6785C211.323 45.8576 210.885 45.9915 210.443 46.0797C209.974 46.1735 209.492 46.2203 209 46.2203C208.507 46.2203 208.026 46.1735 207.557 46.0797C207.096 45.9876 206.639 45.8459 206.187 45.6553L206.182 45.6531L206.181 45.6553C205.749 45.4688 205.339 45.2461 204.952 44.9868C204.568 44.7298 204.213 44.4395 203.887 44.1163L203.884 44.1133C203.561 43.7868 203.27 43.4318 203.014 43.0475C202.754 42.6604 202.532 42.2506 202.345 41.8192C202.337 41.7987 202.329 41.7783 202.322 41.7572C202.143 41.3231 202.009 40.8851 201.921 40.4427C201.827 39.9737 201.78 39.4928 201.78 39C201.78 38.5072 201.827 38.0266 201.921 37.5576C202.013 37.0964 202.155 36.6395 202.345 36.1871L202.347 36.1822L202.345 36.1813C202.532 35.7494 202.755 35.3399 203.014 34.9528C203.271 34.5685 203.561 34.2135 203.884 33.887L203.887 33.8842C204.213 33.5613 204.568 33.2711 204.952 33.014C205.34 32.7548 205.749 32.5318 206.181 32.3453C206.202 32.3364 206.222 32.3287 206.243 32.322C206.677 32.143 207.115 32.0094 207.557 31.9211C208.026 31.827 208.507 31.78 209 31.78ZM210.151 33.3815C209.78 33.307 209.396 33.27 209 33.27C208.604 33.27 208.22 33.307 207.848 33.3815C207.487 33.4537 207.142 33.5572 206.813 33.6919C206.799 33.6991 206.784 33.7063 206.769 33.7127C206.41 33.8679 206.079 34.0461 205.778 34.2475C205.475 34.4503 205.195 34.68 204.936 34.9357C204.68 35.1944 204.451 35.4755 204.247 35.779C204.046 36.0798 203.868 36.4099 203.713 36.769L203.711 36.7682C203.567 37.1105 203.457 37.4707 203.381 37.8487C203.307 38.2206 203.27 38.6041 203.27 39C203.27 39.3959 203.307 39.7794 203.381 40.1516C203.454 40.513 203.557 40.858 203.692 41.1867C203.699 41.2014 203.706 41.2158 203.713 41.231C203.868 41.5901 204.046 41.9199 204.247 42.2207C204.45 42.5242 204.68 42.8054 204.936 43.0641C205.195 43.32 205.475 43.5494 205.779 43.7522C206.079 43.9536 206.409 44.1318 206.769 44.287L206.768 44.289C207.111 44.4331 207.471 44.543 207.849 44.6182C208.22 44.6927 208.604 44.7295 209 44.7295C209.396 44.7295 209.78 44.6924 210.152 44.6182C210.513 44.546 210.858 44.4425 211.187 44.3078C211.201 44.3006 211.216 44.2934 211.231 44.287C211.59 44.1318 211.92 43.9536 212.221 43.7522C212.525 43.5494 212.805 43.3197 213.064 43.0641C213.32 42.8054 213.55 42.5245 213.753 42.221C213.954 41.9202 214.132 41.5901 214.287 41.231L214.289 41.2318C214.433 40.8895 214.543 40.5293 214.619 40.1516C214.693 39.7794 214.73 39.3959 214.73 39C214.73 38.6041 214.692 38.2206 214.619 37.8487C214.546 37.487 214.443 37.1423 214.308 36.8133C214.3 36.7989 214.294 36.7842 214.287 36.769C214.132 36.4099 213.954 36.0798 213.752 35.779C213.55 35.4755 213.32 35.1944 213.064 34.9359C212.805 34.6803 212.525 34.4506 212.221 34.2478C211.92 34.0464 211.59 33.8682 211.231 33.713L211.232 33.711C210.89 33.5669 210.53 33.457 210.151 33.3815Z" fill="white"/>
</g>
<path d="M87.64 40.936V36H88.76V40.712C88.76 41.1493 88.8667 41.5467 89.08 41.904C89.2933 42.2613 89.5787 42.5467 89.936 42.76C90.2987 42.9733 90.696 43.08 91.128 43.08C91.5653 43.08 91.96 42.9733 92.312 42.76C92.6693 42.5467 92.9547 42.2613 93.168 41.904C93.3813 41.5467 93.488 41.1493 93.488 40.712V36H94.608L94.616 44H93.496L93.488 42.88C93.2053 43.2853 92.8373 43.608 92.384 43.848C91.936 44.088 91.4453 44.208 90.912 44.208C90.3093 44.208 89.76 44.0613 89.264 43.768C88.768 43.4747 88.3733 43.08 88.08 42.584C87.7867 42.088 87.64 41.5387 87.64 40.936ZM98.682 44.152C98.2447 44.1413 97.818 44.0613 97.402 43.912C96.986 43.7627 96.6233 43.56 96.314 43.304C96.0047 43.048 95.7833 42.7573 95.65 42.432L96.618 42.016C96.7033 42.224 96.8607 42.416 97.09 42.592C97.3247 42.7627 97.5913 42.9013 97.89 43.008C98.1887 43.1093 98.4847 43.16 98.778 43.16C99.1033 43.16 99.4073 43.1067 99.69 43C99.9727 42.8933 100.202 42.7413 100.378 42.544C100.559 42.3413 100.65 42.104 100.65 41.832C100.65 41.5387 100.554 41.3093 100.362 41.144C100.17 40.9733 99.9273 40.84 99.634 40.744C99.3407 40.6427 99.0393 40.5467 98.73 40.456C98.1647 40.3013 97.666 40.1307 97.234 39.944C96.802 39.7573 96.4633 39.52 96.218 39.232C95.978 38.9387 95.858 38.5627 95.858 38.104C95.858 37.6187 95.994 37.2 96.266 36.848C96.5433 36.4907 96.9033 36.216 97.346 36.024C97.794 35.8267 98.2713 35.728 98.778 35.728C99.4287 35.728 100.021 35.8693 100.554 36.152C101.093 36.4347 101.482 36.8107 101.722 37.28L100.818 37.816C100.722 37.5973 100.57 37.408 100.362 37.248C100.154 37.088 99.9167 36.9627 99.65 36.872C99.3887 36.7813 99.122 36.7333 98.85 36.728C98.5087 36.7227 98.1913 36.7733 97.898 36.88C97.6047 36.9813 97.3673 37.1333 97.186 37.336C97.01 37.5387 96.922 37.7867 96.922 38.08C96.922 38.3733 97.01 38.5973 97.186 38.752C97.362 38.9013 97.5993 39.024 97.898 39.12C98.202 39.2107 98.5433 39.3173 98.922 39.44C99.4073 39.5947 99.8633 39.7707 100.29 39.968C100.717 40.1653 101.061 40.4107 101.322 40.704C101.583 40.9973 101.711 41.368 101.706 41.816C101.706 42.296 101.562 42.7147 101.274 43.072C100.986 43.4293 100.613 43.704 100.154 43.896C99.6953 44.0827 99.2047 44.168 98.682 44.152ZM106.543 44.208C105.807 44.208 105.135 44.0187 104.527 43.64C103.924 43.2613 103.441 42.7547 103.079 42.12C102.721 41.48 102.543 40.7733 102.543 40C102.543 39.4133 102.647 38.8667 102.855 38.36C103.063 37.848 103.348 37.4 103.711 37.016C104.079 36.6267 104.505 36.3227 104.991 36.104C105.476 35.8853 105.993 35.776 106.543 35.776C107.135 35.776 107.679 35.8933 108.175 36.128C108.676 36.3627 109.105 36.6907 109.463 37.112C109.825 37.5333 110.097 38.0267 110.279 38.592C110.465 39.1573 110.543 39.768 110.51 40.424H103.727C103.791 40.9307 103.951 41.384 104.207 41.784C104.468 42.184 104.799 42.5013 105.199 42.736C105.604 42.9653 106.052 43.0827 106.543 43.088C107.076 43.088 107.556 42.9493 107.983 42.672C108.415 42.3947 108.761 42.0133 109.023 41.528L110.159 41.792C109.839 42.5013 109.356 43.0827 108.711 43.536C108.065 43.984 107.343 44.208 106.543 44.208ZM103.695 39.52H109.383C109.345 39.024 109.193 38.5707 108.927 38.16C108.665 37.744 108.327 37.4133 107.911 37.168C107.495 36.9173 107.039 36.792 106.543 36.792C106.047 36.792 105.593 36.9147 105.183 37.16C104.772 37.4 104.436 37.728 104.174 38.144C103.913 38.5547 103.753 39.0133 103.695 39.52ZM111.882 44V36H113.002V37.104C113.285 36.6987 113.653 36.376 114.106 36.136C114.559 35.896 115.053 35.776 115.586 35.776C115.895 35.776 116.194 35.816 116.482 35.896L116.026 37.008C115.802 36.9387 115.583 36.904 115.37 36.904C114.938 36.904 114.541 37.0107 114.178 37.224C113.821 37.4373 113.535 37.7227 113.322 38.08C113.109 38.4373 113.002 38.8347 113.002 39.272V44H111.882ZM120.873 44.208C120.19 44.208 119.569 44.0427 119.009 43.712C118.454 43.3813 118.014 42.9387 117.689 42.384C117.363 41.824 117.201 41.2107 117.201 40.544H118.321C118.321 41.008 118.435 41.4347 118.665 41.824C118.894 42.208 119.201 42.5147 119.585 42.744C119.974 42.9733 120.403 43.088 120.873 43.088C121.337 43.088 121.761 42.9733 122.145 42.744C122.529 42.5147 122.835 42.208 123.065 41.824C123.299 41.4347 123.417 41.008 123.417 40.544C123.417 40.0747 123.305 39.648 123.081 39.264C122.862 38.8747 122.55 38.5653 122.145 38.336C121.745 38.1013 121.267 37.984 120.713 37.984H117.993L119.049 32.8H124.289V33.92H119.953L119.369 36.864L120.673 36.872C121.435 36.8827 122.105 37.0453 122.681 37.36C123.262 37.6747 123.715 38.1067 124.041 38.656C124.371 39.2 124.537 39.8293 124.537 40.544C124.537 41.0453 124.441 41.5173 124.249 41.96C124.062 42.4027 123.798 42.7947 123.457 43.136C123.121 43.472 122.731 43.736 122.289 43.928C121.851 44.1147 121.379 44.208 120.873 44.208ZM129.792 44.208C129.12 44.208 128.52 44.0587 127.992 43.76C127.464 43.456 127.013 43.0373 126.64 42.504C126.266 41.9707 125.981 41.3547 125.784 40.656C125.592 39.952 125.496 39.2 125.496 38.4C125.496 37.6 125.592 36.848 125.784 36.144C125.981 35.44 126.266 34.824 126.64 34.296C127.013 33.7627 127.464 33.3467 127.992 33.048C128.52 32.744 129.12 32.592 129.792 32.592C130.458 32.592 131.056 32.744 131.584 33.048C132.112 33.3467 132.56 33.7627 132.928 34.296C133.296 34.824 133.576 35.44 133.768 36.144C133.965 36.848 134.064 37.6 134.064 38.4C134.064 39.2 133.965 39.952 133.768 40.656C133.576 41.3547 133.296 41.9707 132.928 42.504C132.56 43.0373 132.112 43.456 131.584 43.76C131.056 44.0587 130.458 44.208 129.792 44.208ZM129.792 43.088C130.496 43.088 131.085 42.872 131.56 42.44C132.04 42.008 132.4 41.4373 132.64 40.728C132.88 40.0133 133 39.2373 133 38.4C133 37.5147 132.874 36.72 132.624 36.016C132.378 35.3067 132.016 34.7467 131.536 34.336C131.061 33.92 130.48 33.712 129.792 33.712C129.248 33.712 128.773 33.8373 128.368 34.088C127.962 34.3387 127.626 34.6827 127.36 35.12C127.093 35.5573 126.893 36.0587 126.76 36.624C126.626 37.184 126.56 37.776 126.56 38.4C126.56 39.2427 126.682 40.0213 126.928 40.736C127.173 41.4453 127.536 42.016 128.016 42.448C128.496 42.8747 129.088 43.088 129.792 43.088ZM139.167 44.208C138.495 44.208 137.895 44.0587 137.367 43.76C136.839 43.456 136.388 43.0373 136.015 42.504C135.641 41.9707 135.356 41.3547 135.159 40.656C134.967 39.952 134.871 39.2 134.871 38.4C134.871 37.6 134.967 36.848 135.159 36.144C135.356 35.44 135.641 34.824 136.015 34.296C136.388 33.7627 136.839 33.3467 137.367 33.048C137.895 32.744 138.495 32.592 139.167 32.592C139.833 32.592 140.431 32.744 140.959 33.048C141.487 33.3467 141.935 33.7627 142.303 34.296C142.671 34.824 142.951 35.44 143.143 36.144C143.34 36.848 143.439 37.6 143.439 38.4C143.439 39.2 143.34 39.952 143.143 40.656C142.951 41.3547 142.671 41.9707 142.303 42.504C141.935 43.0373 141.487 43.456 140.959 43.76C140.431 44.0587 139.833 44.208 139.167 44.208ZM139.167 43.088C139.871 43.088 140.46 42.872 140.935 42.44C141.415 42.008 141.775 41.4373 142.015 40.728C142.255 40.0133 142.375 39.2373 142.375 38.4C142.375 37.5147 142.249 36.72 141.999 36.016C141.753 35.3067 141.391 34.7467 140.911 34.336C140.436 33.92 139.855 33.712 139.167 33.712C138.623 33.712 138.148 33.8373 137.743 34.088C137.337 34.3387 137.001 34.6827 136.735 35.12C136.468 35.5573 136.268 36.0587 136.135 36.624C136.001 37.184 135.935 37.776 135.935 38.4C135.935 39.2427 136.057 40.0213 136.303 40.736C136.548 41.4453 136.911 42.016 137.391 42.448C137.871 42.8747 138.463 43.088 139.167 43.088ZM145.05 44L150.858 33.92H144.242V32.8H152.154V33.92L146.33 44H145.05Z" fill="#002B60"/>
<path d="M19 65C19 58.9249 23.9249 54 30 54H47C53.0751 54 58 58.9249 58 65V66.1251C58 71.7426 53.7673 76.4576 48.1823 77.0614L40.6246 77.8784C39.8768 77.9593 39.1228 77.9632 38.3742 77.8902L28.9319 76.969C23.2972 76.4192 19 71.6824 19 66.0209V65Z" fill="#D9D9D9"/>
<circle cx="38.5" cy="38.5" r="9.5" fill="#D9D9D9"/>
<defs>
<clipPath id="clip0_77_284">
<rect width="34" height="34" fill="white" transform="translate(192 22)"/>
</clipPath>
</defs>
</svg>
