<svg width="688" height="83" viewBox="0 0 688 83" fill="none" xmlns="http://www.w3.org/2000/svg">
<path d="M20.304 57.864C17.104 57.864 14.368 57.304 12.096 56.184C9.856 55.064 8.048 53.608 6.672 51.816C5.296 50.024 4.288 48.088 3.648 46.008C3.008 43.896 2.688 41.864 2.688 39.912V38.856C2.688 36.744 3.008 34.632 3.648 32.52C4.32 30.408 5.344 28.488 6.72 26.76C8.096 25.032 9.888 23.64 12.096 22.584C14.304 21.528 16.944 21 20.016 21C23.152 21 25.84 21.544 28.08 22.632C30.32 23.72 32.096 25.24 33.408 27.192C34.72 29.144 35.52 31.448 35.808 34.104H31.008C30.752 32.12 30.112 30.488 29.088 29.208C28.064 27.896 26.768 26.92 25.2 26.28C23.664 25.64 21.936 25.32 20.016 25.32C17.936 25.32 16.112 25.688 14.544 26.424C12.976 27.128 11.664 28.136 10.608 29.448C9.584 30.728 8.8 32.216 8.256 33.912C7.744 35.608 7.488 37.448 7.488 39.432C7.488 41.32 7.744 43.112 8.256 44.808C8.8 46.504 9.6 48.008 10.656 49.32C11.744 50.632 13.088 51.672 14.688 52.44C16.288 53.176 18.16 53.544 20.304 53.544C23.312 53.544 25.84 52.792 27.888 51.288C29.936 49.784 31.184 47.608 31.632 44.76H36.432C36.112 47.16 35.296 49.352 33.984 51.336C32.704 53.32 30.912 54.904 28.608 56.088C26.336 57.272 23.568 57.864 20.304 57.864ZM51.4523 57.768C48.4123 57.768 46.0763 56.776 44.4443 54.792C42.8123 52.808 41.9963 49.944 41.9963 46.2V31.32H46.6043V47.112C46.6043 49.128 47.1483 50.712 48.2363 51.864C49.3243 52.984 50.7963 53.544 52.6523 53.544C54.5723 53.544 56.1403 52.936 57.3563 51.72C58.5723 50.472 59.1803 48.776 59.1803 46.632V31.32H63.7883V57H60.1403V46.008H60.7163C60.7163 48.536 60.3803 50.68 59.7083 52.44C59.0363 54.168 58.0283 55.496 56.6843 56.424C55.3723 57.32 53.6923 57.768 51.6443 57.768H51.4523ZM72.7129 57V31.368H76.3609V41.928H76.1689C76.1689 38.184 76.9849 35.448 78.6169 33.72C80.2809 31.96 82.7609 31.08 86.0569 31.08H86.9209V35.208H85.2889C82.7289 35.208 80.7609 35.896 79.3849 37.272C78.0089 38.616 77.3209 40.568 77.3209 43.128V57H72.7129ZM92.4004 57V31.368H96.0484V41.928H95.8564C95.8564 38.184 96.6724 35.448 98.3044 33.72C99.9684 31.96 102.448 31.08 105.744 31.08H106.608V35.208H104.976C102.416 35.208 100.448 35.896 99.0724 37.272C97.6964 38.616 97.0084 40.568 97.0084 43.128V57H92.4004ZM122.703 57.864C120.463 57.864 118.527 57.48 116.895 56.712C115.263 55.944 113.935 54.936 112.911 53.688C111.887 52.408 111.119 50.984 110.607 49.416C110.127 47.848 109.887 46.248 109.887 44.616V43.752C109.887 42.088 110.127 40.472 110.607 38.904C111.119 37.336 111.887 35.928 112.911 34.68C113.935 33.4 115.231 32.392 116.799 31.656C118.399 30.888 120.271 30.504 122.415 30.504C125.199 30.504 127.487 31.112 129.279 32.328C131.103 33.512 132.447 35.048 133.311 36.936C134.207 38.824 134.655 40.84 134.655 42.984V45.048H111.903V41.592H131.295L130.239 43.464C130.239 41.64 129.951 40.072 129.375 38.76C128.799 37.416 127.935 36.376 126.783 35.64C125.631 34.904 124.175 34.536 122.415 34.536C120.591 34.536 119.071 34.952 117.855 35.784C116.671 36.616 115.775 37.752 115.167 39.192C114.591 40.632 114.303 42.296 114.303 44.184C114.303 46.008 114.591 47.656 115.167 49.128C115.775 50.568 116.703 51.72 117.951 52.584C119.199 53.416 120.783 53.832 122.703 53.832C124.719 53.832 126.351 53.384 127.599 52.488C128.879 51.592 129.647 50.552 129.903 49.368H134.223C133.871 51.128 133.167 52.648 132.111 53.928C131.055 55.208 129.727 56.184 128.127 56.856C126.527 57.528 124.719 57.864 122.703 57.864ZM141.197 57V31.368H144.845V42.36H144.269C144.269 39.832 144.605 37.704 145.277 35.976C145.981 34.216 147.037 32.888 148.445 31.992C149.853 31.064 151.629 30.6 153.773 30.6H153.965C157.197 30.6 159.581 31.608 161.117 33.624C162.685 35.64 163.469 38.552 163.469 42.36V57H158.861V41.4C158.861 39.416 158.301 37.832 157.181 36.648C156.061 35.432 154.525 34.824 152.573 34.824C150.557 34.824 148.925 35.448 147.677 36.696C146.429 37.944 145.805 39.608 145.805 41.688V57H141.197ZM181.884 57.288C179.964 57.288 178.3 57.016 176.892 56.472C175.516 55.928 174.444 55 173.676 53.688C172.94 52.344 172.572 50.536 172.572 48.264V23.592H176.988V48.84C176.988 50.216 177.356 51.288 178.092 52.056C178.86 52.792 179.932 53.16 181.308 53.16H185.82V57.288H181.884ZM168.156 34.824V31.368H185.82V34.824H168.156ZM212.044 57L199.9 21.96H204.748L215.644 53.928L213.34 52.776H219.1L216.652 53.928L226.684 21.96H231.388L220.108 57H212.044ZM251.67 57V49.32H250.902V40.44C250.902 38.68 250.438 37.352 249.51 36.456C248.614 35.56 247.286 35.112 245.526 35.112C244.534 35.112 243.51 35.128 242.454 35.16C241.398 35.192 240.39 35.224 239.43 35.256C238.47 35.288 237.638 35.336 236.934 35.4V31.368C237.638 31.304 238.374 31.256 239.142 31.224C239.942 31.16 240.758 31.128 241.59 31.128C242.422 31.096 243.222 31.08 243.99 31.08C246.614 31.08 248.758 31.4 250.422 32.04C252.086 32.648 253.318 33.656 254.118 35.064C254.918 36.472 255.318 38.376 255.318 40.776V57H251.67ZM243.27 57.672C241.35 57.672 239.686 57.352 238.278 56.712C236.902 56.04 235.83 55.08 235.062 53.832C234.326 52.584 233.958 51.08 233.958 49.32C233.958 47.496 234.358 45.976 235.158 44.76C235.99 43.544 237.19 42.632 238.758 42.024C240.326 41.384 242.214 41.064 244.422 41.064H251.382V44.52H244.23C242.374 44.52 240.95 44.968 239.958 45.864C238.966 46.76 238.47 47.912 238.47 49.32C238.47 50.728 238.966 51.864 239.958 52.728C240.95 53.592 242.374 54.024 244.23 54.024C245.318 54.024 246.358 53.832 247.35 53.448C248.342 53.032 249.158 52.36 249.798 51.432C250.47 50.472 250.838 49.16 250.902 47.496L252.15 49.32C251.99 51.144 251.542 52.68 250.806 53.928C250.102 55.144 249.11 56.072 247.83 56.712C246.582 57.352 245.062 57.672 243.27 57.672ZM264.063 57V21.96H268.671V57H264.063ZM260.511 25.608V21.96H268.671V25.608H260.511ZM286.39 57.768C283.35 57.768 281.014 56.776 279.382 54.792C277.75 52.808 276.934 49.944 276.934 46.2V31.32H281.542V47.112C281.542 49.128 282.086 50.712 283.174 51.864C284.262 52.984 285.734 53.544 287.59 53.544C289.51 53.544 291.078 52.936 292.294 51.72C293.51 50.472 294.118 48.776 294.118 46.632V31.32H298.726V57H295.078V46.008H295.654C295.654 48.536 295.318 50.68 294.646 52.44C293.974 54.168 292.966 55.496 291.622 56.424C290.31 57.32 288.63 57.768 286.582 57.768H286.39ZM318.546 57.864C316.306 57.864 314.37 57.48 312.738 56.712C311.106 55.944 309.778 54.936 308.754 53.688C307.73 52.408 306.962 50.984 306.45 49.416C305.97 47.848 305.73 46.248 305.73 44.616V43.752C305.73 42.088 305.97 40.472 306.45 38.904C306.962 37.336 307.73 35.928 308.754 34.68C309.778 33.4 311.074 32.392 312.642 31.656C314.242 30.888 316.114 30.504 318.258 30.504C321.042 30.504 323.33 31.112 325.122 32.328C326.946 33.512 328.29 35.048 329.154 36.936C330.05 38.824 330.498 40.84 330.498 42.984V45.048H307.746V41.592H327.138L326.082 43.464C326.082 41.64 325.794 40.072 325.218 38.76C324.642 37.416 323.778 36.376 322.626 35.64C321.474 34.904 320.018 34.536 318.258 34.536C316.434 34.536 314.914 34.952 313.698 35.784C312.514 36.616 311.618 37.752 311.01 39.192C310.434 40.632 310.146 42.296 310.146 44.184C310.146 46.008 310.434 47.656 311.01 49.128C311.618 50.568 312.546 51.72 313.794 52.584C315.042 53.416 316.626 53.832 318.546 53.832C320.562 53.832 322.194 53.384 323.442 52.488C324.722 51.592 325.49 50.552 325.746 49.368H330.066C329.714 51.128 329.01 52.648 327.954 53.928C326.898 55.208 325.57 56.184 323.97 56.856C322.37 57.528 320.562 57.864 318.546 57.864ZM336.129 57V51.144H341.697V57H336.129ZM336.129 39.24V33.384H341.697V39.24H336.129Z" fill="white"/>
<g clip-path="url(#clip0_81_285)">
<g filter="url(#filter0_d_81_285)">
<path d="M415.492 0L414.936 1.89206V56.7731L415.492 57.328L440.985 42.2701L415.492 0Z" fill="#D5D5D5"/>
</g>
<path d="M415.493 0L390 42.2701L415.493 57.3296V30.6902V0Z" fill="#9D9D9D"/>
<path d="M415.493 62.153L415.178 62.5344V82.0851L415.493 83L441 47.1017L415.493 62.153Z" fill="#D4D4D4"/>
<path d="M415.493 83V62.1514L390 47.1017L415.493 83Z" fill="#9D9D9D"/>
<path d="M415.493 57.328L440.985 42.2701L415.493 30.6902V57.328Z" fill="white"/>
<path d="M390 42.2701L415.493 57.328V30.6902L390 42.2701Z" fill="#DDDDDD"/>
</g>
<path d="M493.12 77V62.4H495.08V77H493.12ZM494.68 77V75.24H501.76V77H494.68ZM494.68 70.46V68.7H501.14V70.46H494.68ZM494.68 64.16V62.4H501.56V64.16H494.68ZM508.992 77.12C508.192 77.12 507.499 77.0067 506.912 76.78C506.339 76.5533 505.892 76.1667 505.572 75.62C505.266 75.06 505.112 74.3067 505.112 73.36V63.08H506.952V73.6C506.952 74.1733 507.106 74.62 507.412 74.94C507.732 75.2467 508.179 75.4 508.752 75.4H510.632V77.12H508.992ZM503.272 67.76V66.32H510.632V67.76H503.272ZM513.348 77V62.4H515.268V71.12H514.788C514.788 70.0667 514.921 69.16 515.188 68.4C515.468 67.6267 515.894 67.0333 516.468 66.62C517.041 66.2067 517.774 66 518.668 66H518.748C520.028 66 520.994 66.4267 521.648 67.28C522.301 68.12 522.628 69.3267 522.628 70.9V77H520.708V70.5C520.708 69.6333 520.461 68.96 519.968 68.48C519.488 68 518.861 67.76 518.088 67.76C517.234 67.76 516.548 68.0467 516.028 68.62C515.521 69.18 515.268 69.92 515.268 70.84V77H513.348ZM530.681 77.36C529.747 77.36 528.941 77.2 528.261 76.88C527.581 76.56 527.027 76.14 526.601 75.62C526.174 75.0867 525.854 74.4933 525.641 73.84C525.441 73.1867 525.341 72.52 525.341 71.84V71.48C525.341 70.7867 525.441 70.1133 525.641 69.46C525.854 68.8067 526.174 68.22 526.601 67.7C527.027 67.1667 527.567 66.7467 528.221 66.44C528.887 66.12 529.667 65.96 530.561 65.96C531.721 65.96 532.674 66.2133 533.421 66.72C534.181 67.2133 534.741 67.8533 535.101 68.64C535.474 69.4267 535.661 70.2667 535.661 71.16V72.02H526.181V70.58H534.261L533.821 71.36C533.821 70.6 533.701 69.9467 533.461 69.4C533.221 68.84 532.861 68.4067 532.381 68.1C531.901 67.7933 531.294 67.64 530.561 67.64C529.801 67.64 529.167 67.8133 528.661 68.16C528.167 68.5067 527.794 68.98 527.541 69.58C527.301 70.18 527.181 70.8733 527.181 71.66C527.181 72.42 527.301 73.1067 527.541 73.72C527.794 74.32 528.181 74.8 528.701 75.16C529.221 75.5067 529.881 75.68 530.681 75.68C531.521 75.68 532.201 75.4933 532.721 75.12C533.254 74.7467 533.574 74.3133 533.681 73.82H535.481C535.334 74.5533 535.041 75.1867 534.601 75.72C534.161 76.2533 533.607 76.66 532.941 76.94C532.274 77.22 531.521 77.36 530.681 77.36ZM538.387 77V66.32H539.907V70.72H539.827C539.827 69.16 540.167 68.02 540.847 67.3C541.54 66.5667 542.574 66.2 543.947 66.2H544.307V67.92H543.627C542.56 67.92 541.74 68.2067 541.167 68.78C540.594 69.34 540.307 70.1533 540.307 71.22V77H538.387ZM551.013 77.36C550.079 77.36 549.273 77.2 548.593 76.88C547.913 76.56 547.359 76.14 546.933 75.62C546.506 75.0867 546.186 74.4933 545.973 73.84C545.773 73.1867 545.673 72.52 545.673 71.84V71.48C545.673 70.7867 545.773 70.1133 545.973 69.46C546.186 68.8067 546.506 68.22 546.933 67.7C547.359 67.1667 547.899 66.7467 548.553 66.44C549.219 66.12 549.999 65.96 550.893 65.96C552.053 65.96 553.006 66.2133 553.753 66.72C554.513 67.2133 555.073 67.8533 555.433 68.64C555.806 69.4267 555.993 70.2667 555.993 71.16V72.02H546.513V70.58H554.593L554.153 71.36C554.153 70.6 554.033 69.9467 553.793 69.4C553.553 68.84 553.193 68.4067 552.713 68.1C552.233 67.7933 551.626 67.64 550.893 67.64C550.133 67.64 549.499 67.8133 548.993 68.16C548.499 68.5067 548.126 68.98 547.873 69.58C547.633 70.18 547.513 70.8733 547.513 71.66C547.513 72.42 547.633 73.1067 547.873 73.72C548.126 74.32 548.513 74.8 549.033 75.16C549.553 75.5067 550.213 75.68 551.013 75.68C551.853 75.68 552.533 75.4933 553.053 75.12C553.586 74.7467 553.906 74.3133 554.013 73.82H555.813C555.666 74.5533 555.373 75.1867 554.933 75.72C554.493 76.2533 553.939 76.66 553.273 76.94C552.606 77.22 551.853 77.36 551.013 77.36ZM562.419 77.32C561.152 77.32 560.179 76.9067 559.499 76.08C558.819 75.2533 558.479 74.06 558.479 72.5V66.3H560.399V72.88C560.399 73.72 560.626 74.38 561.079 74.86C561.532 75.3267 562.146 75.56 562.919 75.56C563.719 75.56 564.372 75.3067 564.879 74.8C565.386 74.28 565.639 73.5733 565.639 72.68V66.3H567.559V77H566.039V72.42H566.279C566.279 73.4733 566.139 74.3667 565.859 75.1C565.579 75.82 565.159 76.3733 564.599 76.76C564.052 77.1333 563.352 77.32 562.499 77.32H562.419ZM571.278 77V66.32H572.798V70.9H572.558C572.558 69.86 572.691 68.98 572.958 68.26C573.238 67.5267 573.651 66.9667 574.198 66.58C574.744 66.1933 575.438 66 576.278 66H576.358C577.198 66 577.891 66.1933 578.438 66.58C578.998 66.9667 579.411 67.5267 579.678 68.26C579.944 68.98 580.078 69.86 580.078 70.9H579.518C579.518 69.86 579.658 68.98 579.938 68.26C580.218 67.5267 580.631 66.9667 581.178 66.58C581.738 66.1933 582.438 66 583.278 66H583.358C584.198 66 584.898 66.1933 585.458 66.58C586.018 66.9667 586.431 67.5267 586.698 68.26C586.978 68.98 587.118 69.86 587.118 70.9V77H585.198V70.48C585.198 69.6133 584.984 68.9467 584.558 68.48C584.131 68 583.538 67.76 582.778 67.76C581.991 67.76 581.358 68.0133 580.878 68.52C580.398 69.0133 580.158 69.7067 580.158 70.6V77H578.238V70.48C578.238 69.6133 578.024 68.9467 577.598 68.48C577.171 68 576.578 67.76 575.818 67.76C575.031 67.76 574.398 68.0133 573.918 68.52C573.438 69.0133 573.198 69.7067 573.198 70.6V77H571.278Z" fill="white"/>
<path d="M497.344 48V23.448L498.928 24.672H491.512V21.72H500.8V48H497.344ZM525.873 48.72C523.953 48.72 522.345 48.384 521.049 47.712C519.777 47.04 518.757 46.128 517.989 44.976C517.245 43.8 516.705 42.456 516.369 40.944C516.057 39.432 515.901 37.848 515.901 36.192V34.464C515.901 30.312 516.933 27.12 518.997 24.888C521.061 22.632 524.049 21.504 527.961 21.504C528.897 21.504 529.689 21.528 530.337 21.576C530.985 21.624 531.693 21.696 532.461 21.792V24.744C531.669 24.648 530.937 24.576 530.265 24.528C529.593 24.48 528.777 24.456 527.817 24.456C525.633 24.456 523.905 24.864 522.633 25.68C521.361 26.496 520.449 27.672 519.897 29.208C519.345 30.72 519.069 32.556 519.069 34.716V36.336L518.205 39.54C518.229 37.644 518.589 36.072 519.285 34.824C520.005 33.576 520.977 32.64 522.201 32.016C523.449 31.392 524.877 31.08 526.485 31.08C528.357 31.08 529.941 31.464 531.237 32.232C532.533 32.976 533.505 34.008 534.153 35.328C534.825 36.648 535.161 38.148 535.161 39.828C535.161 41.532 534.813 43.056 534.117 44.4C533.421 45.744 532.377 46.8 530.985 47.568C529.617 48.336 527.913 48.72 525.873 48.72ZM525.873 45.696C527.193 45.696 528.297 45.444 529.185 44.94C530.073 44.436 530.733 43.752 531.165 42.888C531.621 42 531.849 40.98 531.849 39.828C531.849 38.676 531.633 37.656 531.201 36.768C530.769 35.88 530.121 35.196 529.257 34.716C528.417 34.212 527.373 33.96 526.125 33.96C524.901 33.96 523.797 34.188 522.813 34.644C521.853 35.1 521.097 35.772 520.545 36.66C519.993 37.524 519.717 38.592 519.717 39.864C519.717 40.92 519.933 41.892 520.365 42.78C520.797 43.668 521.469 44.376 522.381 44.904C523.293 45.432 524.457 45.696 525.873 45.696ZM538.767 41.772V37.524L549.675 21.072L552.087 22.98L541.899 38.388L542.223 39.036H559.215V41.772H538.767ZM552.483 48V29.388H555.723V48H552.483ZM565.321 48L576.445 24.996L576.229 24.672H561.865V21.72H579.505V25.896L568.921 48H565.321ZM561.865 28.848V21.72H564.745V28.848H561.865ZM584.517 53.652L581.745 52.608L585.093 43.32L587.937 44.4L584.517 53.652ZM595.414 48L606.538 24.996L606.322 24.672H591.958V21.72H609.598V25.896L599.014 48H595.414ZM591.958 28.848V21.72H594.838V28.848H591.958ZM622.35 48.648C620.478 48.648 618.81 48.312 617.346 47.64C615.906 46.968 614.766 46.032 613.926 44.832C613.11 43.632 612.702 42.24 612.702 40.656C612.702 39.6 612.906 38.652 613.314 37.812C613.722 36.948 614.286 36.204 615.006 35.58C615.726 34.956 616.542 34.476 617.454 34.14V33.78C616.734 33.468 616.074 33.048 615.474 32.52C614.898 31.992 614.43 31.368 614.07 30.648C613.734 29.928 613.566 29.112 613.566 28.2C613.566 26.688 613.962 25.404 614.754 24.348C615.57 23.292 616.638 22.488 617.958 21.936C619.302 21.36 620.766 21.072 622.35 21.072C623.958 21.072 625.422 21.36 626.742 21.936C628.086 22.488 629.154 23.292 629.946 24.348C630.738 25.404 631.134 26.688 631.134 28.2C631.134 29.112 630.966 29.928 630.63 30.648C630.294 31.368 629.826 31.992 629.226 32.52C628.65 33.048 627.99 33.468 627.246 33.78V34.14C628.182 34.476 629.01 34.968 629.73 35.616C630.45 36.24 631.014 36.984 631.422 37.848C631.83 38.688 632.034 39.624 632.034 40.656C632.034 42.24 631.614 43.632 630.774 44.832C629.958 46.032 628.818 46.968 627.354 47.64C625.914 48.312 624.246 48.648 622.35 48.648ZM622.35 45.696C623.67 45.696 624.798 45.492 625.734 45.084C626.67 44.652 627.39 44.052 627.894 43.284C628.398 42.492 628.65 41.568 628.65 40.512C628.65 39.456 628.398 38.544 627.894 37.776C627.414 37.008 626.706 36.42 625.77 36.012C624.834 35.58 623.694 35.364 622.35 35.364C621.03 35.364 619.902 35.58 618.966 36.012C618.03 36.42 617.31 37.008 616.806 37.776C616.326 38.544 616.086 39.456 616.086 40.512C616.086 41.568 616.326 42.492 616.806 43.284C617.31 44.052 618.03 44.652 618.966 45.084C619.902 45.492 621.03 45.696 622.35 45.696ZM622.35 32.628C623.982 32.628 625.29 32.28 626.274 31.584C627.258 30.864 627.75 29.772 627.75 28.308C627.75 26.82 627.246 25.74 626.238 25.068C625.254 24.372 623.958 24.024 622.35 24.024C620.742 24.024 619.434 24.372 618.426 25.068C617.442 25.764 616.95 26.844 616.95 28.308C616.95 29.772 617.442 30.864 618.426 31.584C619.434 32.28 620.742 32.628 622.35 32.628ZM649.916 48.36C648.596 48.36 647.482 48.1067 646.576 47.6C645.682 47.08 645.002 46.36 644.536 45.44C644.082 44.5067 643.856 43.4267 643.856 42.2V33.4H645.816V42.44C645.816 43.2533 645.969 43.9733 646.276 44.6C646.596 45.2133 647.062 45.6933 647.676 46.04C648.289 46.3867 649.036 46.56 649.916 46.56C650.796 46.56 651.536 46.3933 652.136 46.06C652.749 45.7133 653.209 45.2333 653.516 44.62C653.836 43.9933 653.996 43.2667 653.996 42.44V33.4H655.956V42.2C655.956 43.4267 655.729 44.5067 655.276 45.44C654.822 46.36 654.149 47.08 653.256 47.6C652.362 48.1067 651.249 48.36 649.916 48.36ZM664.657 48.36C663.444 48.36 662.41 48.16 661.557 47.76C660.704 47.36 660.05 46.8067 659.597 46.1C659.144 45.3933 658.917 44.5933 658.917 43.7H660.877C660.877 44.14 660.99 44.58 661.217 45.02C661.457 45.46 661.85 45.8267 662.397 46.12C662.957 46.4133 663.71 46.56 664.657 46.56C665.537 46.56 666.257 46.4333 666.817 46.18C667.377 45.9133 667.79 45.5733 668.057 45.16C668.324 44.7333 668.457 44.2733 668.457 43.78C668.457 43.18 668.197 42.6867 667.677 42.3C667.157 41.9 666.397 41.6533 665.397 41.56L663.777 41.42C662.484 41.3133 661.45 40.9133 660.677 40.22C659.904 39.5267 659.517 38.6133 659.517 37.48C659.517 36.5867 659.73 35.8067 660.157 35.14C660.597 34.4733 661.204 33.9533 661.977 33.58C662.75 33.1933 663.65 33 664.677 33C665.69 33 666.584 33.1867 667.357 33.56C668.13 33.9333 668.73 34.46 669.157 35.14C669.597 35.8067 669.817 36.6067 669.817 37.54H667.857C667.857 37.0733 667.744 36.6333 667.517 36.22C667.304 35.8067 666.964 35.4667 666.497 35.2C666.03 34.9333 665.424 34.8 664.677 34.8C663.957 34.8 663.357 34.9267 662.877 35.18C662.41 35.4333 662.057 35.7667 661.817 36.18C661.59 36.58 661.477 37.0133 661.477 37.48C661.477 38.0133 661.684 38.4867 662.097 38.9C662.51 39.3133 663.124 39.5533 663.937 39.62L665.557 39.76C666.557 39.84 667.417 40.0533 668.137 40.4C668.87 40.7333 669.43 41.1867 669.817 41.76C670.217 42.32 670.417 42.9933 670.417 43.78C670.417 44.6733 670.177 45.4667 669.697 46.16C669.217 46.8533 668.544 47.3933 667.677 47.78C666.81 48.1667 665.804 48.36 664.657 48.36ZM675.266 48.08V46.28H678.906C679.786 46.28 680.566 46.14 681.246 45.86C681.939 45.5667 682.526 45.1667 683.006 44.66C683.499 44.1533 683.873 43.56 684.126 42.88C684.379 42.2 684.506 41.4667 684.506 40.68C684.506 39.8533 684.379 39.1067 684.126 38.44C683.873 37.76 683.499 37.1733 683.006 36.68C682.526 36.1733 681.939 35.7867 681.246 35.52C680.566 35.2533 679.786 35.12 678.906 35.12H675.266V33.32H678.706C680.026 33.32 681.173 33.5267 682.146 33.94C683.119 34.34 683.926 34.8867 684.566 35.58C685.219 36.26 685.706 37.0267 686.026 37.88C686.346 38.72 686.506 39.58 686.506 40.46V40.9C686.506 41.7533 686.346 42.6067 686.026 43.46C685.706 44.3133 685.219 45.0867 684.566 45.78C683.926 46.4733 683.119 47.0333 682.146 47.46C681.173 47.8733 680.026 48.08 678.706 48.08H675.266ZM673.706 48.08V33.32H675.666V48.08H673.706Z" fill="white"/>
<defs>
<filter id="filter0_d_81_285" x="410.936" y="0" width="34.0493" height="65.328" filterUnits="userSpaceOnUse" color-interpolation-filters="sRGB">
<feFlood flood-opacity="0" result="BackgroundImageFix"/>
<feColorMatrix in="SourceAlpha" type="matrix" values="0 0 0 0 0 0 0 0 0 0 0 0 0 0 0 0 0 0 127 0" result="hardAlpha"/>
<feOffset dy="4"/>
<feGaussianBlur stdDeviation="2"/>
<feComposite in2="hardAlpha" operator="out"/>
<feColorMatrix type="matrix" values="0 0 0 0 0 0 0 0 0 0 0 0 0 0 0 0 0 0 0.25 0"/>
<feBlend mode="normal" in2="BackgroundImageFix" result="effect1_dropShadow_81_285"/>
<feBlend mode="normal" in="SourceGraphic" in2="effect1_dropShadow_81_285" result="shape"/>
</filter>
<clipPath id="clip0_81_285">
<rect width="51" height="83" fill="white" transform="translate(390)"/>
</clipPath>
</defs>
</svg>
